<svg width="50" height="59" viewBox="0 0 50 59" fill="none" xmlns="http://www.w3.org/2000/svg">
<path d="M37.7294 58.2815C27.727 58.2663 18.1379 53.5981 11.065 45.3006C3.99218 37.0031 0.012965 25.7536 0 14.0192C0 10.5127 1.18735 7.1498 3.30086 4.67034C5.41436 2.19088 8.28089 0.797936 11.2698 0.797936C11.9028 0.79228 12.5346 0.859668 13.1563 0.999128C13.7573 1.10346 14.3481 1.27674 14.9203 1.51648C15.3227 1.68212 15.6813 1.96811 15.9606 2.34618C16.2399 2.72424 16.4302 3.18129 16.5128 3.67212L19.8692 20.9172C19.9597 21.3853 19.9488 21.8725 19.8375 22.3344C19.7262 22.7963 19.5182 23.2181 19.2322 23.5614C18.9137 23.9638 18.8892 23.9926 15.8758 25.832C18.289 32.0427 22.523 37.0303 27.8071 39.8868C29.3996 36.3228 29.4241 36.2941 29.7671 35.9204C30.0597 35.585 30.4193 35.3408 30.813 35.2103C31.2067 35.0798 31.622 35.067 32.021 35.1731L46.7208 39.1108C47.1258 39.221 47.5002 39.4503 47.8088 39.7771C48.1174 40.104 48.35 40.5176 48.4848 40.979C48.6916 41.6612 48.8473 42.3632 48.9503 43.0771C49.0489 43.7995 49.098 44.5299 49.0973 45.2615C49.0521 48.753 47.8314 52.0817 45.7016 54.5211C43.5718 56.9604 40.7058 58.3123 37.7294 58.2815ZM11.2698 6.54629C9.58242 6.55386 7.96595 7.34361 6.77276 8.74341C5.57957 10.1432 4.90638 12.0396 4.89993 14.0192C4.90642 24.2314 8.36732 34.0231 14.5226 41.2443C20.678 48.4654 29.0245 52.5256 37.7294 52.5332C39.4169 52.5256 41.0333 51.7358 42.2265 50.3361C43.4197 48.9363 44.0929 47.0399 44.0994 45.0603V44.1118L32.7315 41.0364L32.021 42.6172C30.9185 45.1178 30.1101 46.9285 28.0521 45.9513C23.9922 44.2465 20.307 41.5022 17.2642 37.9176C14.2215 34.3331 11.8976 29.9984 10.4613 25.2285C9.57936 22.9866 11.2453 21.9519 13.3523 20.6585L14.6998 19.8825L12.0783 6.54629H11.2698Z" fill="#10B4FF"/>
</svg>
