<svg width="49" height="44" viewBox="0 0 49 44" fill="none" xmlns="http://www.w3.org/2000/svg">
<path d="M21.875 22C21.875 22.6252 22.1516 23.2247 22.6439 23.6667C23.1361 24.1088 23.8038 24.3571 24.5 24.3571C25.1962 24.3571 25.8639 24.1088 26.3561 23.6667C26.8484 23.2247 27.125 22.6252 27.125 22C27.125 21.3748 26.8484 20.7753 26.3561 20.3332C25.8639 19.8912 25.1962 19.6429 24.5 19.6429C23.8038 19.6429 23.1361 19.8912 22.6439 20.3332C22.1516 20.7753 21.875 21.3748 21.875 22ZM32.8124 22C32.8124 22.6252 33.089 23.2247 33.5812 23.6667C34.0735 24.1088 34.7412 24.3571 35.4374 24.3571C36.1336 24.3571 36.8012 24.1088 37.2935 23.6667C37.7858 23.2247 38.0623 22.6252 38.0623 22C38.0623 21.3748 37.7858 20.7753 37.2935 20.3332C36.8012 19.8912 36.1336 19.6429 35.4374 19.6429C34.7412 19.6429 34.0735 19.8912 33.5812 20.3332C33.089 20.7753 32.8124 21.3748 32.8124 22ZM10.9377 22C10.9377 22.6252 11.2142 23.2247 11.7065 23.6667C12.1988 24.1088 12.8665 24.3571 13.5626 24.3571C14.2588 24.3571 14.9265 24.1088 15.4188 23.6667C15.911 23.2247 16.1876 22.6252 16.1876 22C16.1876 21.3748 15.911 20.7753 15.4188 20.3332C14.9265 19.8912 14.2588 19.6429 13.5626 19.6429C12.8665 19.6429 12.1988 19.8912 11.7065 20.3332C11.2142 20.7753 10.9377 21.3748 10.9377 22ZM47.0966 13.475C45.8607 10.8379 44.0888 8.47098 41.8303 6.43795C39.5875 4.41668 36.925 2.81002 33.9936 1.70893C30.9859 0.574554 27.7922 0 24.5 0H24.3906C21.0766 0.0147321 17.8665 0.604018 14.8478 1.76295C11.9415 2.87533 9.30398 4.48484 7.08225 6.50179C4.84556 8.52991 3.09012 10.8871 1.87607 13.5143C0.618271 16.2348 -0.0160958 19.1272 0.000310253 22.1031C0.0188669 25.5135 0.917363 28.8736 2.62528 31.9196V39.3839C2.62528 39.983 2.89031 40.5576 3.36208 40.9812C3.83384 41.4049 4.47369 41.6429 5.14087 41.6429H13.4587C16.8509 43.1765 20.5928 43.9833 24.3906 44H24.5055C27.7812 44 30.9585 43.4304 33.9499 42.3156C36.8665 41.2277 39.519 39.6397 41.7592 37.6406C44.0177 35.6321 45.795 33.2848 47.0364 30.6674C48.327 27.9567 48.9833 25.0741 48.9997 22.0982C49.0161 19.1076 48.3708 16.2054 47.0966 13.475ZM38.8334 34.9839C34.9999 38.392 29.914 40.2679 24.5 40.2679H24.407C21.1094 40.2531 17.8337 39.5165 14.9407 38.1317L14.4814 37.9107H6.78148V30.9964L6.53538 30.5839C4.99322 27.9862 4.17291 25.0446 4.15651 22.0835C4.13463 17.1875 6.2182 12.5911 10.0408 9.12902C13.8579 5.66696 18.9602 3.75179 24.4125 3.73214H24.5055C27.2398 3.73214 29.8921 4.20848 32.3913 5.15134C34.8303 6.06964 37.0178 7.39062 38.899 9.07991C40.7748 10.7643 42.2513 12.7335 43.274 14.9237C44.3349 17.1924 44.8654 19.5987 44.8544 22.0835C44.8216 26.9746 42.6834 31.5562 38.8334 34.9839Z" fill="#10B4FF"/>
</svg>
