<svg width="35" height="35" viewBox="0 0 35 35" fill="none" xmlns="http://www.w3.org/2000/svg">
<path d="M24.6875 16.25H18.75V10.3125C18.75 10.1406 18.6094 10 18.4375 10H16.5625C16.3906 10 16.25 10.1406 16.25 10.3125V16.25H10.3125C10.1406 16.25 10 16.3906 10 16.5625V18.4375C10 18.6094 10.1406 18.75 10.3125 18.75H16.25V24.6875C16.25 24.8594 16.3906 25 16.5625 25H18.4375C18.6094 25 18.75 24.8594 18.75 24.6875V18.75H24.6875C24.8594 18.75 25 18.6094 25 18.4375V16.5625C25 16.3906 24.8594 16.25 24.6875 16.25Z" fill="#10B4FF"/>
<path d="M17.5 0C7.83594 0 0 7.83594 0 17.5C0 27.1641 7.83594 35 17.5 35C27.1641 35 35 27.1641 35 17.5C35 7.83594 27.1641 0 17.5 0ZM17.5 32.0312C9.47656 32.0312 2.96875 25.5234 2.96875 17.5C2.96875 9.47656 9.47656 2.96875 17.5 2.96875C25.5234 2.96875 32.0312 9.47656 32.0312 17.5C32.0312 25.5234 25.5234 32.0312 17.5 32.0312Z" fill="#10B4FF"/>
</svg>
