<svg width="37" height="46" viewBox="0 0 37 46" fill="none" xmlns="http://www.w3.org/2000/svg">
<path d="M16.5576 13.7734H19.568V45.5586H16.5576V13.7734Z" fill="#10B4FF"/>
<path d="M11.033 24.7569C9.92679 23.5975 9.04175 22.177 8.43579 20.5886C7.82983 19.0001 7.5166 17.2795 7.5166 15.5392C7.5166 13.799 7.82983 12.0783 8.43579 10.4899C9.04175 8.90144 9.92679 7.48101 11.033 6.32153L13.05 8.95264C12.2591 9.78086 11.6263 10.7958 11.1931 11.9308C10.7598 13.0659 10.5359 14.2956 10.5359 15.5392C10.5359 16.7829 10.7598 18.0126 11.1931 19.1476C11.6263 20.2827 12.2591 21.2976 13.05 22.1258L11.033 24.7569Z" fill="#10B4FF"/>
<path d="M25.0922 24.7569L23.0752 22.1258C23.866 21.2976 24.4988 20.2827 24.9321 19.1476C25.3653 18.0126 25.5893 16.7829 25.5893 15.5392C25.5893 14.2956 25.3653 13.0659 24.9321 11.9308C24.4988 10.7958 23.866 9.78086 23.0752 8.95264L25.0922 6.32153C26.1984 7.48101 27.0834 8.90144 27.6894 10.4899C28.2953 12.0783 28.6086 13.799 28.6086 15.5392C28.6086 17.2795 28.2953 19.0001 27.6894 20.5886C27.0834 22.177 26.1984 23.5975 25.0922 24.7569Z" fill="#10B4FF"/>
<path d="M6.62294 31.0788C4.56658 29.2695 2.89754 26.9234 1.74801 24.2262C0.598467 21.5291 0 18.5549 0 15.5394C0 12.5239 0.598467 9.54979 1.74801 6.85262C2.89754 4.15545 4.56658 1.80931 6.62294 0L8.42919 2.82535C6.74672 4.3057 5.38114 6.22527 4.44061 8.43204C3.50008 10.6388 3.01043 13.0722 3.01043 15.5394C3.01043 18.0067 3.50008 20.44 4.44061 22.6468C5.38114 24.8536 6.74672 26.7731 8.42919 28.2535L6.62294 31.0788Z" fill="#10B4FF"/>
<path d="M29.5021 31.0788L27.6958 28.2535C29.3783 26.7731 30.7439 24.8536 31.6844 22.6468C32.6249 20.44 33.1146 18.0067 33.1146 15.5394C33.1146 13.0722 32.6249 10.6388 31.6844 8.43204C30.7439 6.22527 29.3783 4.3057 27.6958 2.82535L29.5021 0C31.5584 1.80931 33.2275 4.15545 34.377 6.85262C35.5265 9.54979 36.125 12.5239 36.125 15.5394C36.125 18.5549 35.5265 21.5291 34.377 24.2262C33.2275 26.9234 31.5584 29.2695 29.5021 31.0788Z" fill="#10B4FF"/>
</svg>
