<svg width="85" height="85" viewBox="0 0 85 85" fill="none" xmlns="http://www.w3.org/2000/svg">
<path fill-rule="evenodd" clip-rule="evenodd" d="M45.249 5.41273C44.3386 5.34553 43.426 5.31186 42.5132 5.31181V0C43.5572 0.000509018 44.6009 0.0394887 45.642 0.11686L45.249 5.41273ZM55.8945 7.80305C54.1917 7.146 52.4428 6.61516 50.662 6.21482L51.8254 1.03049C53.86 1.48731 55.8627 2.09285 57.8069 2.84713L55.8945 7.80305ZM63.1722 11.5744C62.4127 11.0679 61.6348 10.5896 60.8402 10.1402L63.4591 5.51897C65.2753 6.54806 67.0135 7.70916 68.6597 8.9929L65.3927 13.1839C64.6725 12.6221 63.9318 12.087 63.1722 11.5797V11.5744ZM72.9147 21.0826C71.8639 19.5898 70.7045 18.1766 69.4459 16.8544L73.2919 13.1892C74.7262 14.7031 76.0542 16.3232 77.2601 18.023L72.9147 21.0826ZM76.867 28.2641C76.5183 27.422 76.1391 26.5928 75.7302 25.7782L80.4739 23.3879C81.4121 25.2528 82.2111 27.1845 82.8644 29.1672L77.8178 30.8297C77.5324 29.9632 77.2152 29.1074 76.867 28.2641ZM79.6824 41.5809C79.6395 39.7554 79.4619 37.9356 79.1512 36.1362L84.3837 35.2332C84.7396 37.2836 84.9468 39.3658 84.9999 41.4481L79.6877 41.5809H79.6824ZM78.9865 49.7504C79.1618 48.8474 79.3052 47.9497 79.4168 47.0414L84.6918 47.6947C84.4366 49.7672 84.0283 51.8178 83.47 53.8299L78.3491 52.4116C78.5934 51.5352 78.8059 50.6481 78.9865 49.7504ZM73.9293 62.3872C74.9068 60.8468 75.7673 59.232 76.511 57.5641L81.3664 59.7154C80.5164 61.6276 79.5337 63.4655 78.4181 65.229L73.9293 62.3872ZM68.8084 68.7879C69.4565 68.1399 70.078 67.4706 70.6677 66.7801L74.6943 70.2487C74.0124 71.0393 73.3019 71.8047 72.5641 72.5434L68.8084 68.7879Z" fill="#00AFFF"/>
<path fill-rule="evenodd" clip-rule="evenodd" d="M42.5139 5.31181C36.399 5.31225 30.3785 6.82061 24.9858 9.70329C19.593 12.586 14.9945 16.754 11.5974 21.8382C8.20035 26.9224 6.10962 32.7658 5.51041 38.8509C4.9112 44.936 5.822 51.075 8.16215 56.724C10.5023 62.3731 14.1996 67.3579 18.9264 71.237C23.6533 75.116 29.264 77.7696 35.2614 78.9626C41.2588 80.1556 47.4579 79.8512 53.3096 78.0765C59.1613 76.3017 64.485 73.1114 68.8091 68.7879L72.5648 72.5434C67.6231 77.4875 61.5381 81.1365 54.849 83.167C48.1598 85.1975 41.0731 85.5469 34.2167 84.1841C27.3602 82.8214 20.9458 79.7886 15.5417 75.3546C10.1375 70.9205 5.91063 65.222 3.23542 58.764C0.560207 52.306 -0.480697 45.2879 0.204932 38.3315C0.890562 31.3751 3.28156 24.6951 7.16607 18.8836C11.0506 13.072 16.3087 8.30826 22.4745 5.01437C28.6402 1.72047 35.5233 -0.0018524 42.5139 1.49505e-06V5.31181Z" fill="#00AFFF"/>
<path fill-rule="evenodd" clip-rule="evenodd" d="M39.8568 15.9355C40.5612 15.9355 41.2368 16.2154 41.7349 16.7134C42.233 17.2115 42.5129 17.8871 42.5129 18.5915V46.266L59.7668 56.1247C60.3606 56.4829 60.7908 57.0592 60.9654 57.7304C61.1399 58.4016 61.045 59.1144 60.7009 59.7165C60.3568 60.3187 59.7908 60.7623 59.1239 60.9527C58.457 61.1431 57.7421 61.0651 57.1319 60.7354L38.5393 50.1117C38.1328 49.8795 37.7949 49.544 37.5598 49.1392C37.3247 48.7343 37.2008 48.2746 37.2007 47.8064V18.5915C37.2007 17.8871 37.4805 17.2115 37.9786 16.7134C38.4767 16.2154 39.1523 15.9355 39.8568 15.9355Z" fill="#00AFFF"/>
</svg>
