<svg width="85" height="76" viewBox="0 0 85 76" fill="none" xmlns="http://www.w3.org/2000/svg">
<path d="M32.9667 75.6878C30.4575 75.6878 28.0511 74.691 26.2768 72.9167C24.5025 71.1424 23.5057 68.736 23.5057 66.2268C23.5057 63.7176 24.5025 61.3112 26.2768 59.5369C28.0511 57.7626 30.4575 56.7658 32.9667 56.7658C35.4759 56.7658 37.8823 57.7626 39.6566 59.5369C41.4309 61.3112 42.4277 63.7176 42.4277 66.2268C42.4277 68.736 41.4309 71.1424 39.6566 72.9167C37.8823 74.691 35.4759 75.6878 32.9667 75.6878ZM66.0801 75.6878C63.5709 75.6878 61.1645 74.691 59.3902 72.9167C57.6159 71.1424 56.6191 68.736 56.6191 66.2268C56.6191 63.7176 57.6159 61.3112 59.3902 59.5369C61.1645 57.7626 63.5709 56.7658 66.0801 56.7658C68.5893 56.7658 70.9957 57.7626 72.77 59.5369C74.5443 61.3112 75.5411 63.7176 75.5411 66.2268C75.5411 68.736 74.5443 71.1424 72.77 72.9167C70.9957 74.691 68.5893 75.6878 66.0801 75.6878ZM4.40403 9.09672C3.22311 9.05863 2.10331 8.56275 1.28142 7.71392C0.459534 6.8651 0 5.72989 0 4.54836C0 3.36684 0.459534 2.23163 1.28142 1.3828C2.10331 0.533979 3.22311 0.038089 4.40403 0H9.84881C14.1157 0 17.8055 2.96128 18.7327 7.12411L24.66 33.8135C25.5871 37.9763 29.2769 40.9376 33.5438 40.9376H69.0792L75.9006 13.6427H31.6942C30.5244 13.5893 29.4202 13.0871 28.6113 12.2404C27.8023 11.3937 27.3509 10.2677 27.3509 9.09672C27.3509 7.92571 27.8023 6.79977 28.6113 5.95307C29.4202 5.10638 30.5244 4.60411 31.6942 4.55073H75.9006C77.2835 4.55032 78.6482 4.8652 79.8912 5.47144C81.1341 6.07768 82.2224 6.95931 83.0734 8.04932C83.9245 9.13933 84.5158 10.409 84.8024 11.7619C85.0891 13.1147 85.0635 14.5151 84.7277 15.8566L77.9063 43.142C77.4146 45.1108 76.2786 46.8587 74.6791 48.1076C73.0797 49.3565 71.1085 50.0347 69.0792 50.0343H33.5438C29.4037 50.0349 25.3872 48.6234 22.1576 46.0328C18.928 43.4423 16.6786 39.8278 15.7808 35.7861L9.84881 9.09672H4.40403Z" fill="#00AFFF"/>
</svg>
