<svg xmlns="http://www.w3.org/2000/svg" xmlns:xlink="http://www.w3.org/1999/xlink" viewBox="0 0 128 126"><defs><style>.cls-1{fill:url(#radial-gradient);}.cls-2{fill:#fff;}</style><radialGradient id="radial-gradient" cx="-2265.07" cy="2845.86" r="172.43" gradientTransform="matrix(-0.75, 0, 0, 0.75, -1664, -2044.75)" gradientUnits="userSpaceOnUse"><stop offset="0" stop-color="#f9ed32"/><stop offset="0.36" stop-color="#ee2a7b"/><stop offset="0.44" stop-color="#d22a8a"/><stop offset="0.6" stop-color="#8b2ab2"/><stop offset="0.83" stop-color="#1b2af0"/><stop offset="0.88" stop-color="#002aff"/></radialGradient></defs><g id="Layer_4" data-name="Layer 4"><g id="_3-instagram" data-name=" 3-instagram"><rect class="cls-1" x="35.93" y="34.79" width="56" height="56" rx="28"/><path class="cls-2" d="M73.67,79.57H54.18a7,7,0,0,1-7-7V53a7,7,0,0,1,7-7H73.67a7,7,0,0,1,7,7V72.53A7,7,0,0,1,73.67,79.57ZM55.54,49.36a5,5,0,0,0-5,5V71.18a5,5,0,0,0,5,5H72.32a5,5,0,0,0,5-5V54.39a5,5,0,0,0-5-5Z"/><path class="cls-2" d="M63.93,72.3C57.13,72.3,52,65.16,55.61,58a7.85,7.85,0,0,1,3.5-3.5C66.3,50.85,73.44,56,73.44,62.79h0A9.52,9.52,0,0,1,63.93,72.3Zm0-15.67a6.16,6.16,0,0,0-6.16,6.24,6.25,6.25,0,0,0,6.07,6.07,6.16,6.16,0,1,0,.09-12.31Z"/><circle class="cls-2" cx="73.44" cy="53.83" r="1.68"/></g></g></svg>