<svg xmlns="http://www.w3.org/2000/svg" viewBox="0 0 128 126"><defs><style>.cls-1{fill:#2dc100;}.cls-2{fill:#fffffe;fill-rule:evenodd;}</style></defs><g id="Layer_4" data-name="Layer 4"><circle class="cls-1" cx="64" cy="63" r="28"/><g id="Layer_1"><g id="_337874808" data-name=" 337874808"><path id="_337847680" data-name=" 337847680" class="cls-2" d="M70,49.56a14.61,14.61,0,0,0-7.53-5.07,15.7,15.7,0,0,0-9.3.13,15,15,0,0,0-5.94,3.44,12.47,12.47,0,0,0-3.28,5.57A11.38,11.38,0,0,0,44.2,61a13.37,13.37,0,0,0,4.88,6,1.08,1.08,0,0,1,.45.48,1.16,1.16,0,0,1-.06.64c-.22.72-.37,1.47-.54,2.28-.07.36-.15.73-.23,1.08l-.25,1.17,1-.63,1.21-.77c1-.63,1.9-1.2,2.79-1.7a1.38,1.38,0,0,1,.46-.15,2.84,2.84,0,0,1,.65,0c1,.09,1.9.21,2.88.33l1.23.16.61.08,0-.62a11.69,11.69,0,0,1,.62-5.12A11.13,11.13,0,0,1,62.64,60a12.5,12.5,0,0,1,4.23-2.72,16.27,16.27,0,0,1,5.06-1l.53,0,0-.52a11.64,11.64,0,0,0-.79-3.3A11.52,11.52,0,0,0,70,49.56ZM63.7,52a2.15,2.15,0,0,1,2.19,2.12h0v0h0a2.17,2.17,0,0,1-.61,1.56,2.25,2.25,0,0,1-3.11,0,2.13,2.13,0,0,1,0-3.07A2.25,2.25,0,0,1,63.68,52h0Zm-9.09.69a2.1,2.1,0,0,1,.61,1.53h0v0h0a2.12,2.12,0,0,1-.71,1.51,2.22,2.22,0,0,1-1.56.58h0a2.15,2.15,0,0,1-1.53-.67,2.13,2.13,0,0,1-.59-1.55h0A2.17,2.17,0,0,1,53.07,52h0a2.25,2.25,0,0,1,1.52.69Z"/><path id="_337882704" data-name=" 337882704" class="cls-2" d="M81.6,62a11.57,11.57,0,0,0-7.49-4.17,12.46,12.46,0,0,0-8.64,1.78,11.72,11.72,0,0,0-2.19,1.84,9.39,9.39,0,0,0-2.53,5.5,9,9,0,0,0,1.5,5.8A11,11,0,0,0,64,74.76a11.44,11.44,0,0,0,4.25,2.53,12.1,12.1,0,0,0,5,.49,8.27,8.27,0,0,0,1.4-.32,5.9,5.9,0,0,1,2.27-.35,7.26,7.26,0,0,1,2.53,1,2.49,2.49,0,0,1-.17-1.77,4,4,0,0,1,1.27-1.71,9.05,9.05,0,0,0,3.1-6A9.5,9.5,0,0,0,81.6,62Zm-7.39,1.3a1.91,1.91,0,0,1,1.31-.53h.06a1.82,1.82,0,0,1,1.28.59,1.89,1.89,0,0,1,.52,1.32v.06A1.88,1.88,0,0,1,76.81,66a1.91,1.91,0,0,1-1.31.52h-.07a1.84,1.84,0,0,1-1.28-.57,1.91,1.91,0,0,1-.52-1.31v-.08a1.89,1.89,0,0,1,.58-1.28Zm-7.3-.53a1.9,1.9,0,0,1,1.83,1.9h0v.06a1.9,1.9,0,0,1-3.8,0v-.07a1.88,1.88,0,0,1,.54-1.31,1.92,1.92,0,0,1,1.3-.58h.13Z"/></g></g></g></svg>