<svg xmlns="http://www.w3.org/2000/svg" viewBox="0 0 128 126"><defs><style>.cls-1{fill:#e5e5e5;}.cls-2,.cls-4{fill:#fff;}.cls-3{fill:#2dc100;}.cls-4{fill-rule:evenodd;}</style></defs><g id="Layer_4" data-name="Layer 4"><path class="cls-1" d="M36.8,89.93a1.27,1.27,0,0,1-.91-.38,1.28,1.28,0,0,1-.32-1.24l3.9-14.24a29.75,29.75,0,1,1,26,15.37h0a30,30,0,0,1-13.77-3.38L37.12,89.89A1.65,1.65,0,0,1,36.8,89.93Z"/><path class="cls-2" d="M36.8,88.65l4-14.75A28.48,28.48,0,1,1,65.51,88.16h0a28.45,28.45,0,0,1-13.61-3.47Zm15.79-9.11.87.51a23.57,23.57,0,0,0,12,3.3h0a23.67,23.67,0,1,0-20-11.09l.56.9-2.39,8.73Z"/><path class="cls-3" d="M37.79,87.66l3.9-14.24A27.49,27.49,0,1,1,65.51,87.18h0a27.47,27.47,0,0,1-13.14-3.34Z"/><path class="cls-2" d="M36.8,88.65l4-14.75A28.48,28.48,0,1,1,65.51,88.16h0a28.45,28.45,0,0,1-13.61-3.47Zm15.79-9.11.87.51a23.57,23.57,0,0,0,12,3.3h0a23.67,23.67,0,1,0-20-11.09l.56.9-2.39,8.73Z"/><path class="cls-4" d="M58.4,47.77c-.54-1.18-1.1-1.21-1.6-1.23s-.89,0-1.37,0a2.61,2.61,0,0,0-1.89.89A8,8,0,0,0,51,53.35c0,3.5,2.55,6.88,2.91,7.36s4.92,7.88,12.15,10.74c6,2.37,7.24,1.89,8.54,1.78s4.21-1.73,4.8-3.39a5.87,5.87,0,0,0,.42-3.38c-.18-.3-.65-.47-1.37-.83s-4.21-2.08-4.86-2.31-1.12-.36-1.6.35S70.19,66,69.78,66.46s-.83.54-1.54.18a19.52,19.52,0,0,1-5.72-3.53,21.3,21.3,0,0,1-4-4.93c-.42-.71,0-1.06.31-1.45a21.68,21.68,0,0,0,1.78-2.43,1.3,1.3,0,0,0-.06-1.25C60.41,52.7,59,49.18,58.4,47.77Z"/></g></svg>