<svg width="66" height="69" viewBox="0 0 66 69" fill="none" xmlns="http://www.w3.org/2000/svg">
<path d="M47.1698 43.3962L44.3315 40.7517L43.1321 42.331C46.8302 37.8336 49.0566 31.9949 49.0566 25.6432C49.0566 11.4803 38.0755 0 24.5283 0C10.9811 0 0 11.4803 0 25.6432C0 39.8062 10.9811 51.2864 24.5283 51.2864C30.6038 51.2864 36.1887 48.9588 40.4906 45.0926L38.7409 46.5271L41.5094 49.3139L60.3774 69L66 63.1218L47.1698 43.3962ZM24.5283 43.3962C15.1321 43.3962 7.54717 35.4666 7.54717 25.6432C7.54717 15.8199 15.1321 7.89022 24.5283 7.89022C33.9245 7.89022 41.5094 15.8199 41.5094 25.6432C41.5094 35.4666 33.9245 43.3962 24.5283 43.3962Z" fill="#00AFFF"/>
</svg>
