<svg width="85" height="105" viewBox="0 0 85 105" fill="none" xmlns="http://www.w3.org/2000/svg">
<path d="M3.26922 104.615C2.40217 104.615 1.57063 104.271 0.957532 103.657C0.344435 103.044 0 102.213 0 101.346V3.26922C0 2.40217 0.344435 1.57063 0.957532 0.957531C1.57063 0.344434 2.40217 0 3.26922 0C4.13627 0 4.9678 0.344434 5.5809 0.957531C6.194 1.57063 6.53843 2.40217 6.53843 3.26922V101.346C6.53843 102.213 6.194 103.044 5.5809 103.657C4.9678 104.271 4.13627 104.615 3.26922 104.615Z" fill="#00AFFF"/>
<path d="M83.5283 5.94941C83.0313 5.66247 82.4675 5.51142 81.8937 5.51142C81.3198 5.51142 80.7561 5.66247 80.2591 5.94941C73.9214 8.61353 67.0916 9.90595 60.2188 9.7417C54.2975 9.30845 48.5308 7.64969 43.2842 4.87057C38.2185 2.18565 32.6544 0.572052 26.9381 0.130201C22.187 0.0764592 17.4734 0.976933 13.0767 2.77827V10.0686C17.3359 7.73815 22.1157 6.52352 26.9708 6.53787C31.7787 7.01484 36.4449 8.43693 40.7015 10.7225C46.7827 13.898 53.4683 15.7476 60.3169 16.1494C66.4651 16.1708 72.5816 15.2671 78.461 13.4686V55.4127C72.6063 57.4908 66.431 58.5201 60.2188 58.453C54.2975 58.0198 48.5308 56.361 43.2842 53.5819C38.2185 50.897 32.6544 49.2834 26.9381 48.8415C22.1781 48.8292 17.4642 49.7742 13.0767 51.6204V58.8453C17.3359 56.5149 22.1157 55.3002 26.9708 55.3146C31.7787 55.7916 36.4449 57.2137 40.7015 59.4992C46.7827 62.6747 53.4683 64.5243 60.3169 64.9261C68.1778 65.0894 75.982 63.562 83.2014 60.4473C83.7405 60.1756 84.1939 59.7599 84.5113 59.2464C84.8286 58.7328 84.9976 58.1414 84.9994 57.5377V8.72824C85.0076 8.17874 84.877 7.63605 84.6199 7.15035C84.3627 6.66465 83.9873 6.25161 83.5283 5.94941Z" fill="#00AFFF"/>
</svg>
