<svg width="111" height="70" viewBox="0 0 111 70" fill="none" xmlns="http://www.w3.org/2000/svg">
<path d="M0 15.3126H42.9517L46.2556 21.8751H3.30397L0 15.3126ZM4.4053 28.4376H47.357L50.6609 35H7.70927L4.4053 28.4376ZM88.8068 63.4374C92.4632 63.4374 95.4148 60.5062 95.4148 56.8749C95.4148 53.2437 92.4632 50.3124 88.8068 50.3124C85.1504 50.3124 82.1989 53.2437 82.1989 56.8749C82.1989 60.5062 85.1504 63.4374 88.8068 63.4374ZM95.4148 24.0625H84.4015V38.5794H104.049L95.4148 24.0625ZM31.9384 63.4375C35.5948 63.4375 38.5464 60.5063 38.5464 56.875C38.5464 53.2438 35.5948 50.3125 31.9384 50.3125C28.282 50.3125 25.3305 53.2438 25.3305 56.875C25.3305 60.5063 28.282 63.4375 31.9384 63.4375ZM92.0842 17.5C95.527 17.5 98.7278 19.2711 100.557 22.1881L109.306 36.1431C110.304 37.735 110.833 39.576 110.833 41.455V51.8749C110.833 54.6363 108.595 56.8749 105.833 56.8749H102.023C102.023 64.1374 96.1196 69.9999 88.8068 69.9999C81.494 69.9999 75.5909 64.1374 75.5909 56.8749L45.1543 56.875C45.1543 64.1375 39.2072 70 31.9384 70C24.6256 70 18.7225 64.1375 18.7225 56.875C13.8566 56.875 9.91192 52.9304 9.91192 48.0644V41.5625H18.7225V48.125H22.0706C24.4935 45.4563 28.0177 43.75 31.9384 43.75C35.8591 43.75 39.3834 45.4563 41.8063 48.125L75.5909 48.1249V8.74999L9.91192 8.75008C9.91192 3.89384 13.8326 9.55841e-05 18.7225 9.55841e-05L69.4015 2.18299e-05C77.6858 9.77358e-06 84.4015 6.71574 84.4015 15V17.5H92.0842Z" fill="#00AFFF"/>
</svg>
