<svg width="85" height="93" viewBox="0 0 85 93" fill="none" xmlns="http://www.w3.org/2000/svg">
<path d="M63.75 0C55.9265 0 49.5833 6.35021 49.5833 14.1667C49.5833 23.6052 61.9792 36.5004 61.9792 49.4735H65.5208C65.5244 36.5004 77.9167 23.9771 77.9167 14.1667C77.9167 6.35021 71.5735 0 63.75 0ZM63.75 6.86375C64.7095 6.86421 65.6595 7.05366 66.5458 7.42128C67.4321 7.78889 68.2373 8.32747 68.9154 9.00627C69.5935 9.68506 70.1313 10.4908 70.4981 11.3774C70.8649 12.2641 71.0534 13.2143 71.0529 14.1737C71.0525 15.1332 70.863 16.0833 70.4954 16.9695C70.1278 17.8558 69.5892 18.661 68.9104 19.3392C68.2316 20.0173 67.4259 20.5551 66.5392 20.9219C65.6526 21.2886 64.7024 21.4771 63.7429 21.4767C61.8047 21.4757 59.9462 20.7049 58.5763 19.3336C57.2064 17.9624 56.4373 16.1032 56.4382 14.1649C56.4392 12.2266 57.21 10.3681 58.5813 8.99823C59.9525 7.62834 61.8117 6.85927 63.75 6.86021V6.86375ZM42.5 7.08333C19.0648 7.08333 0 26.1481 0 49.5833C0 73.0185 19.0648 92.0833 42.5 92.0833C65.9352 92.0833 85 73.0185 85 49.5833C85 42.4646 83.2363 35.785 80.1302 29.881C79.6592 30.816 79.1846 31.705 78.6923 32.6506C77.7608 34.4498 76.7798 36.2667 75.9227 38.0729C76.8081 40.6052 77.4173 43.2827 77.6935 46.0417H73.0469C72.7919 47.2281 72.6042 48.3437 72.6042 49.4735V53.125H77.6971C77.2165 58.1181 75.6681 62.9495 73.1567 67.2917H62.7583C63.5375 63.9696 63.9873 60.2969 64.306 56.5569H57.329C56.9989 60.1806 56.3711 63.771 55.4519 67.2917H29.5481C28.3512 62.6565 27.646 57.908 27.4444 53.125H54.8923V49.4735C54.8649 48.3173 54.7165 47.167 54.4496 46.0417H27.4479C27.6496 41.2587 28.3547 36.5102 29.5517 31.875H48.4783C47.2499 29.5552 46.104 27.1926 45.0429 24.7917H31.9848C34.9137 18.1085 38.7848 14.1667 42.5 14.1667C42.5 11.7052 42.9427 9.3925 43.7183 7.19312C43.311 7.17896 42.9108 7.08333 42.5 7.08333ZM27.8906 17.3754C26.4802 19.731 25.2944 22.214 24.349 24.7917H17.2656C20.3206 21.6867 23.9227 19.1725 27.8906 17.3754ZM11.8433 31.875H22.2417C21.1705 36.5275 20.5408 41.2708 20.361 46.0417H7.30292C7.78184 41.0483 9.33041 36.2165 11.8433 31.875ZM7.30292 53.125H20.3646C20.5735 58.1719 21.2252 62.9354 22.2452 67.2917H11.8433C9.33346 62.9488 7.78511 58.1177 7.30292 53.125ZM17.2656 74.375H24.349C25.369 77.1233 26.5625 79.5919 27.8906 81.7912C23.9227 79.9942 20.3206 77.48 17.2656 74.375ZM31.9848 74.375H53.0152C50.0863 81.0581 46.2152 85 42.5 85C38.7848 85 34.9102 81.0581 31.9848 74.375ZM60.651 74.375H67.7344C64.6794 77.48 61.0773 79.9942 57.1094 81.7912C58.4375 79.5954 59.631 77.1269 60.651 74.375Z" fill="#00AFFF"/>
</svg>
