<svg width="60" height="63" viewBox="0 0 60 63" fill="none" xmlns="http://www.w3.org/2000/svg">
<path d="M56.6545 43.7084C52.4887 43.7084 48.4896 43.0091 44.757 41.7153C44.1711 41.5195 43.5455 41.4941 42.9468 41.6419C42.3482 41.7897 41.799 42.1051 41.3578 42.5545L34.026 50.2472C24.5653 45.1988 16.8756 37.1305 12.0641 27.2041L19.3958 19.4765C19.8372 19.0371 20.15 18.4747 20.2976 17.8554C20.4452 17.2361 20.4214 16.5854 20.229 15.9798C18.9647 11.9518 18.3234 7.73743 18.3294 3.49667C18.3294 1.5735 16.8297 0 14.9968 0H3.33262C1.49968 0 0 1.5735 0 3.49667C0 36.3304 25.3612 62.9401 56.6545 62.9401C58.4874 62.9401 59.9871 61.3666 59.9871 59.4435V47.2051C59.9871 45.2819 58.4874 43.7084 56.6545 43.7084Z" fill="#10B4FF"/>
</svg>
