<svg width="54" height="64" viewBox="0 0 54 64" fill="none" xmlns="http://www.w3.org/2000/svg">
<path d="M51.8347 17.7538L47.0556 23.5166C46.5683 24.1041 45.7804 24.1041 45.2932 23.5166L33.786 9.64101C33.2988 9.05349 33.2988 8.10345 33.786 7.51592L38.5651 1.75319C40.5037 -0.584398 43.6552 -0.584398 45.6042 1.75319L51.8347 9.26599C53.7836 11.6036 53.7836 15.4037 51.8347 17.7538ZM29.6808 12.4661L2.45748 45.2924L0.259714 60.4805C-0.0409239 62.5306 1.44153 64.3057 3.14169 63.9557L15.7374 61.2931L42.9607 28.4668C43.4479 27.8792 43.4479 26.9292 42.9607 26.3417L31.4535 12.4661C30.9559 11.8786 30.168 11.8786 29.6808 12.4661ZM13.0835 42.4798C12.5133 41.7923 12.5133 40.6922 13.0835 40.0047L29.0484 20.754C29.6186 20.0664 30.5308 20.0664 31.101 20.754C31.6712 21.4415 31.6712 22.5415 31.101 23.229L15.1361 42.4798C14.5659 43.1673 13.6537 43.1673 13.0835 42.4798ZM9.34105 52.9927H14.3171V57.5304L7.63053 58.943L4.40644 55.0553L5.57789 46.9925H9.34105V52.9927Z" fill="#10B4FF"/>
</svg>
