<svg width="54" height="54" viewBox="0 0 54 54" fill="none" xmlns="http://www.w3.org/2000/svg">
<path d="M9.06665 10.8H13.4896V43.2H9.06665V10.8ZM15.7011 10.8H17.9126V43.2H15.7011V10.8ZM20.1241 10.8H26.7585V43.2H20.1241V10.8ZM28.97 10.8H31.1815V43.2H28.97V10.8ZM35.6045 10.8H40.0275V43.2H35.6045V10.8ZM42.239 10.8H44.4504V43.2H42.239V10.8ZM4.64368 5.4V16.2H0.220703V5.4C0.220703 3.96783 0.686694 2.59432 1.51616 1.58162C2.34563 0.568927 3.47063 0 4.64368 0H13.4896V5.4H4.64368ZM48.8734 0C50.0465 0 51.1715 0.568927 52.0009 1.58162C52.8304 2.59432 53.2964 3.96783 53.2964 5.4V16.2H48.8734V5.4H40.0275V0H48.8734ZM4.64368 37.8V48.6H13.4896V54H4.64368C3.47063 54 2.34563 53.4311 1.51616 52.4184C0.686694 51.4057 0.220703 50.0322 0.220703 48.6V37.8H4.64368ZM48.8734 48.6V37.8H53.2964V48.6C53.2964 50.0322 52.8304 51.4057 52.0009 52.4184C51.1715 53.4311 50.0465 54 48.8734 54H40.0275V48.6H48.8734Z" fill="#10B4FF"/>
</svg>
