<svg id="Layer_1" data-name="Layer 1" xmlns="http://www.w3.org/2000/svg" xmlns:xlink="http://www.w3.org/1999/xlink" viewBox="0 0 625 200"><defs><style>.cls-1,.cls-3{fill:#fff;stroke:#0c3152;}.cls-1,.cls-2,.cls-3{stroke-miterlimit:10;}.cls-1,.cls-2{stroke-width:1.15px;}.cls-2{stroke:#013152;fill:url(#linear-gradient);}.cls-3{stroke-width:1.15px;}</style><linearGradient id="linear-gradient" x1="40.46" y1="99.54" x2="209.78" y2="99.54" gradientUnits="userSpaceOnUse"><stop offset="0" stop-color="#0d669e"/><stop offset="0.1" stop-color="#3ca3d8"/><stop offset="0.2" stop-color="#58c7ef"/><stop offset="0.2" stop-color="#56c6ef"/><stop offset="0.26" stop-color="#3bbff4"/><stop offset="0.33" stop-color="#25baf8"/><stop offset="0.4" stop-color="#14b5fb"/><stop offset="0.5" stop-color="#09b2fd"/><stop offset="0.63" stop-color="#02b0ff"/><stop offset="1" stop-color="#00b0ff"/></linearGradient></defs><path class="cls-1" d="M116.82,118.78c-5.62,5.8-16.19,12.49-22.68,13.08H56.71V82.08L40.44,70.79v76.77H95.83a41.55,41.55,0,0,0,27.66-10.89Z"/><path class="cls-2" d="M209.78,56.71A17.59,17.59,0,0,0,205,68.8v35.64l-13.36,35.34a11.3,11.3,0,0,1-21.27.17l-7.12-31.22-8.81,31.36a11.29,11.29,0,0,1-21,.78l-.15-.74c0-.89-1.5-5.26-3.41-10.49-3.39-9.22-7.27-22.68-7-23.77a23.2,23.2,0,0,0,.71-5v0c0-.48.06-1,.06-1.44a31.76,31.76,0,0,0-.41-5.47A33,33,0,0,0,117,78.65l-.21-.29A30.83,30.83,0,0,0,94.12,66.91H56.71v0c-4.72,0-9.43,0-14.15,0a2,2,0,0,1-2.1-1.73v-12a2,2,0,0,1,2.1-1.74H95.82a41,41,0,0,1,21.35,6.16A45.67,45.67,0,0,1,130.92,70.8l.32.47c.17.29.36.55.53.82s.18.29.26.44l.26.4a4.45,4.45,0,0,0,.26.43c.15.24.28.49.4.71a44.33,44.33,0,0,1,2.62,5.31,5.08,5.08,0,0,1,.21.64l.37,1.18.94,2.25,7.38,17.77a2,2,0,0,0,3.84,0l3.28-8.73,7.56-20a5.34,5.34,0,0,1,10-.07l5.53,14.07,5.7,14.51a2.18,2.18,0,0,0,4.12,0l16.34-43.48a1.89,1.89,0,0,1,1.69-1.23l3.75,0a11.29,11.29,0,0,1,2.92.36Z"/><path class="cls-1" d="M228.26,72V87.78a1.36,1.36,0,0,0,1.33,1.4h45A1.39,1.39,0,0,1,276,90.6v17.27a1.37,1.37,0,0,1-1.35,1.4h-45a1.38,1.38,0,0,0-1.33,1.42v15.78a1.37,1.37,0,0,0,1.33,1.4h45a1.39,1.39,0,0,1,1.35,1.42v16.89a1.37,1.37,0,0,1-1.35,1.4H225.85c-9,0-16.33-7.74-16.33-17.18V68.8a17.67,17.67,0,0,1,4.74-12.09,15.92,15.92,0,0,1,11.59-5.11h48.79A1.39,1.39,0,0,1,276,53V69.18a1.37,1.37,0,0,1-1.35,1.4h-45A1.38,1.38,0,0,0,228.26,72Z"/><path class="cls-3" d="M303.26,120.25,288,94.7h13l5.7,10.13c1.49,3,3.12,6,4.7,9h.41c1.33-2.95,2.75-6,4.07-9l4.87-10.13h12.53L318.1,121.64l16.31,26.43h-13l-6.29-10.56c-1.7-3.13-3.42-6.39-5.2-9.43h-.42c-1.53,3-3,6.23-4.57,9.43l-5.46,10.56H287Z"/><path class="cls-3" d="M343.57,94.7h9.9l.92,5.69h.33c4.34-3.86,9.86-7,15.52-7,12.87,0,20.25,10.69,20.25,27.16,0,18.25-10.52,28.81-22,28.81-4.57,0-9.06-2.13-13.25-5.87l.38,8.87v16.82H343.57Zm34.51,26c0-10.65-3.35-17-11.2-17-3.73,0-7.25,2-11.23,6v24.85C359.34,137.85,363,139,366,139,372.84,139,378.08,132.77,378.08,120.69Z"/><path class="cls-3" d="M402.69,94.7h9.89l.93,9.52h.33c3.67-7,9.12-10.82,14.64-10.82a12.74,12.74,0,0,1,5.83,1.08l-2.1,10.87a16.94,16.94,0,0,0-5.29-.87c-4.1,0-9.05,2.91-12.15,11v32.55H402.69Z"/><path class="cls-3" d="M437.34,121.43c0-17.34,11.62-28,23.73-28,13.93,0,21.26,10.43,21.26,25.33a34,34,0,0,1-.52,6.09H449.12c1,9.47,6.88,14.86,15.18,14.86a21.43,21.43,0,0,0,11.95-3.87l4.11,7.78a31.19,31.19,0,0,1-17.65,5.78C448.5,149.37,437.34,139,437.34,121.43Zm34.55-5.13c0-8.22-3.52-13.21-10.56-13.21-6,0-11.28,4.65-12.33,13.21Z"/><path class="cls-3" d="M488.77,141.94l5.61-7.95c4.58,3.69,9,5.95,14.22,5.95,5.62,0,8.26-2.74,8.26-6.39,0-4.47-5.58-6.47-11.07-8.65-6.75-2.63-14.47-6.65-14.47-15.55,0-9.26,7.22-15.95,18.75-15.95a27.13,27.13,0,0,1,17.1,6.39l-5.53,7.69c-3.61-2.74-7.23-4.65-11.28-4.65-5.18,0-7.63,2.56-7.63,5.91,0,4.21,5.2,5.82,10.77,8,7,2.69,14.76,6.17,14.76,16.12,0,9.17-7,16.56-20,16.56A31.52,31.52,0,0,1,488.77,141.94Z"/><path class="cls-3" d="M533.94,141.94l5.62-7.95c4.57,3.69,9,5.95,14.22,5.95,5.62,0,8.26-2.74,8.26-6.39,0-4.47-5.58-6.47-11.07-8.65-6.75-2.63-14.47-6.65-14.47-15.55,0-9.26,7.21-15.95,18.74-15.95a27.13,27.13,0,0,1,17.11,6.39l-5.53,7.69c-3.61-2.74-7.24-4.65-11.28-4.65-5.18,0-7.63,2.56-7.63,5.91,0,4.21,5.2,5.82,10.77,8,7,2.69,14.76,6.17,14.76,16.12,0,9.17-7,16.56-20,16.56A31.57,31.57,0,0,1,533.94,141.94Z"/></svg>