<svg id="Layer_1" data-name="Layer 1" xmlns="http://www.w3.org/2000/svg" viewBox="0 0 126 129"><defs><style>.cls-1{fill:#10b4ff;}</style></defs><path class="cls-1" d="M101.92,87a59.16,59.16,0,0,1-18.6-3A5.3,5.3,0,0,0,78,85.26L66.55,96.72A78.41,78.41,0,0,1,32.23,62.4L43.69,50.89A5,5,0,0,0,45,45.68a59.05,59.05,0,0,1-3-18.6,5.23,5.23,0,0,0-5.21-5.21H18.58a5.22,5.22,0,0,0-5.2,5.21,88.53,88.53,0,0,0,88.54,88.54,5.22,5.22,0,0,0,5.21-5.2V92.19A5.23,5.23,0,0,0,101.92,87ZM96.71,68.75h10.42A46.88,46.88,0,0,0,60.25,21.87V32.29A36.43,36.43,0,0,1,96.71,68.75Zm-20.83,0H86.29a26,26,0,0,0-26-26V53.12A15.61,15.61,0,0,1,75.88,68.75Z"/></svg>