<svg id="Layer_1" data-name="Layer 1" xmlns="http://www.w3.org/2000/svg" viewBox="0 0 111 110"><defs><style>.cls-1{fill:#10b4ff;}</style></defs><path class="cls-1" d="M97,3.36H15.5A11.68,11.68,0,0,0,3.86,15V96.5A11.68,11.68,0,0,0,15.5,108.14H97A11.68,11.68,0,0,0,108.64,96.5V15A11.68,11.68,0,0,0,97,3.36ZM97,96.5H15.5V15H97Z"/><path class="cls-1" d="M25.1,32.57H52.19v8.12H25.1ZM61.67,76.06H88.75v8.13H61.67Zm0-13.54H88.75v8.13H61.67ZM34.58,88.25h8.13V77.42H53.54V69.29H42.71V58.46H34.58V69.29H23.75v8.13H34.58Zm33-38.19,7.64-7.63,7.64,7.63,5.74-5.74L81,36.63,88.59,29l-5.74-5.74-7.64,7.64-7.64-7.64L61.83,29l7.64,7.64-7.64,7.69Z"/></svg>