<svg id="Layer_1" data-name="Layer 1" xmlns="http://www.w3.org/2000/svg" viewBox="0 0 102 137"><defs><style>.cls-1{fill:#10b4ff;}.cls-2{fill:#40657c;}</style></defs><path class="cls-1" d="M49.29,133.66a3,3,0,0,1-1.26-.27L8.35,115.21a2.72,2.72,0,0,1-1.14-.95,2.48,2.48,0,0,1-.42-1.36V76.54a2.43,2.43,0,0,1,.43-1.35,2.63,2.63,0,0,1,1.13-1L48,56.06a3.05,3.05,0,0,1,2.51,0L90.22,74.24a2.72,2.72,0,0,1,1.14,1,2.42,2.42,0,0,1,.42,1.35V112.9a2.48,2.48,0,0,1-.42,1.36,2.72,2.72,0,0,1-1.14.95L50.54,133.39A3,3,0,0,1,49.29,133.66ZM12.41,111.31,49.29,128.2l36.87-16.89V78.16L49.29,61.24,12.41,78.16Z"/><path class="cls-1" d="M49.29,97.23A3,3,0,0,1,48,97L8.36,78.85a2.68,2.68,0,0,1-1.43-1.49,2.42,2.42,0,0,1,.15-2A2.73,2.73,0,0,1,8.7,74.08a3.06,3.06,0,0,1,2.15.13L49.29,91.74,87.72,74.21A3,3,0,0,1,88.78,74a3.08,3.08,0,0,1,1.09.13,2.73,2.73,0,0,1,.95.51,2.45,2.45,0,0,1,.67.8,2.23,2.23,0,0,1,.29,1,2.43,2.43,0,0,1-.14,1,2.71,2.71,0,0,1-.55.88,2.84,2.84,0,0,1-.87.61L50.54,97a3,3,0,0,1-1.25.27Z"/><path class="cls-1" d="M69.13,88.17a3.11,3.11,0,0,1-1.25-.26L28.19,69.8a2.69,2.69,0,0,1-1.42-1.49,2.41,2.41,0,0,1,.15-2A2.72,2.72,0,0,1,28.54,65a3,3,0,0,1,2.15.13L70.38,83.31a2.69,2.69,0,0,1,1.29,1.22,2.34,2.34,0,0,1,.19,1.68,2.56,2.56,0,0,1-1,1.44,3,3,0,0,1-1.74.55Z"/><path class="cls-1" d="M49.29,133.66a3,3,0,0,1-2-.75,2.51,2.51,0,0,1-.82-1.82V94.65a2.49,2.49,0,0,1,.82-1.82,3,3,0,0,1,4,0,2.45,2.45,0,0,1,.82,1.82v36.44a2.47,2.47,0,0,1-.82,1.82,3,3,0,0,1-2,.75Z"/><path class="cls-2" d="M50.15,3.84c-10.32,0-18.67,7.64-18.67,17.08,0,12.81,18.67,31.72,18.67,31.72S68.81,33.73,68.81,20.92C68.81,11.48,60.47,3.84,50.15,3.84Zm0,23.18a7,7,0,0,1-4.72-1.79,5.74,5.74,0,0,1,0-8.62,7.1,7.1,0,0,1,9.43,0,5.74,5.74,0,0,1,0,8.62A7,7,0,0,1,50.15,27Z"/></svg>