<svg width="51" height="39" viewBox="0 0 51 39" fill="none" xmlns="http://www.w3.org/2000/svg">
<path fill-rule="evenodd" clip-rule="evenodd" d="M51 6.8333C51 5.1536 50.3327 3.5427 49.145 2.35498C47.9573 1.16726 46.3464 0.5 44.6667 0.5H6.6669C4.98721 0.5 3.37631 1.16726 2.18858 2.35498C1.00086 3.5427 0.333603 5.1536 0.333603 6.8333V32.1665C0.333603 33.8462 1.00086 35.4571 2.18858 36.6448C3.37631 37.8325 4.98721 38.4998 6.6669 38.4998H44.6667C46.3464 38.4998 47.9573 37.8325 49.145 36.6448C50.3327 35.4571 51 33.8462 51 32.1665V6.8333ZM44.6667 3.66665C45.5065 3.66665 46.312 4.00028 46.9059 4.59414C47.4997 5.188 47.8334 5.99345 47.8334 6.8333V9.99995H3.50025V6.8333C3.50025 5.99345 3.83388 5.188 4.42774 4.59414C5.02161 4.00028 5.82705 3.66665 6.6669 3.66665H44.6667ZM3.50025 16.3332H47.8334V32.1665C47.8334 33.0063 47.4997 33.8118 46.9059 34.4057C46.312 34.9995 45.5065 35.3331 44.6667 35.3331H6.6669C5.82705 35.3331 5.02161 34.9995 4.42774 34.4057C3.83388 33.8118 3.50025 33.0063 3.50025 32.1665V16.3332Z" fill="#10B4FF"/>
<path d="M44.6665 25.8332C44.6665 24.9933 44.3329 24.1879 43.739 23.594C43.1452 23.0001 42.3397 22.6665 41.4999 22.6665H38.3332C37.4934 22.6665 36.6879 23.0001 36.094 23.594C35.5002 24.1879 35.1666 24.9933 35.1666 25.8332V28.9998C35.1666 29.8397 35.5002 30.6451 36.094 31.239C36.6879 31.8328 37.4934 32.1665 38.3332 32.1665H41.4999C42.3397 32.1665 43.1452 31.8328 43.739 31.239C44.3329 30.6451 44.6665 29.8397 44.6665 28.9998V25.8332Z" fill="#10B4FF"/>
</svg>
