<svg width="245" height="190" viewBox="0 0 245 190" fill="none" xmlns="http://www.w3.org/2000/svg">
<path d="M60.9445 25.7435C71.2098 25.7435 79.5608 34.0951 79.5608 44.3603C79.5608 54.6256 71.2093 62.9771 60.9445 62.9771C53.5856 62.9771 46.9036 58.6238 43.9211 51.8864L39.3155 53.9251C43.1043 62.4836 51.5938 68.0133 60.9445 68.0133C73.9867 68.0133 84.597 57.4026 84.597 44.3603C84.597 31.3181 73.9867 20.7073 60.9445 20.7073C47.9073 20.7073 37.3006 31.3181 37.3006 44.3603H42.3368C42.3368 34.0951 50.6843 25.7435 60.9445 25.7435Z" fill="#00AFFF"/>
<path d="M84.3815 152.424L87.5271 156.357C89.1921 155.025 90.7709 153.556 92.2213 151.99L88.5263 148.568C87.2461 149.951 85.8515 151.248 84.3815 152.424Z" fill="#00AFFF"/>
<path d="M17.9556 122.763L22.9918 122.773C22.9953 120.884 23.1408 118.985 23.4249 117.126L18.4461 116.366C18.1248 118.472 17.9601 120.624 17.9556 122.763Z" fill="#00AFFF"/>
<path d="M103.581 120.798C103.509 119.324 103.361 117.842 103.141 116.393L98.1615 117.151C98.3564 118.431 98.4868 119.741 98.5508 121.043C98.579 121.625 98.5946 122.216 98.5961 122.799L103.632 122.783C103.631 122.124 103.613 121.456 103.581 120.798Z" fill="#00AFFF"/>
<path d="M76.457 162.764C78.4423 161.984 80.3862 161.046 82.2355 159.976L79.7119 155.617C78.0817 156.562 76.3669 157.389 74.6168 158.076L76.457 162.764Z" fill="#00AFFF"/>
<path d="M57.5758 165.601L57.948 160.579C56.0685 160.439 54.1864 160.157 52.3538 159.738L51.2322 164.648C53.3111 165.122 55.445 165.442 57.5758 165.601Z" fill="#00AFFF"/>
<path d="M99.4215 141.419L94.8829 139.236C94.067 140.932 93.1157 142.582 92.0541 144.14L96.2165 146.975C97.4191 145.21 98.4974 143.34 99.4215 141.419Z" fill="#00AFFF"/>
<path d="M103.174 129.179L98.1917 128.444C97.9167 130.308 97.4972 132.166 96.9452 133.965L101.76 135.442C102.386 133.401 102.862 131.294 103.174 129.179Z" fill="#00AFFF"/>
<path d="M63.9854 165.599C66.1197 165.441 68.253 165.122 70.3254 164.651L69.2104 159.739C67.3813 160.155 65.4972 160.437 63.6117 160.576L63.9854 165.599Z" fill="#00AFFF"/>
<path d="M24.6376 133.943C24.0897 132.147 23.6727 130.289 23.3982 128.422L18.4154 129.155C18.7261 131.27 19.199 133.376 19.8205 135.412L24.6376 133.943Z" fill="#00AFFF"/>
<path d="M33.1926 97.053L29.5146 93.6122C28.0566 95.1709 26.7039 96.851 25.4947 98.6076L29.642 101.464C30.7107 99.9135 31.9048 98.4294 33.1926 97.053Z" fill="#00AFFF"/>
<path d="M39.3246 159.956C41.1729 161.028 43.1164 161.968 45.1002 162.751L46.9474 158.066C45.1973 157.375 43.483 156.546 41.8518 155.6L39.3246 159.956Z" fill="#00AFFF"/>
<path d="M29.5126 144.114C28.4535 142.556 27.5042 140.908 26.6918 139.213L22.1502 141.391C23.0718 143.312 24.1476 145.181 25.3487 146.947L29.5126 144.114Z" fill="#00AFFF"/>
<path d="M19.8925 110.111L24.6995 111.613C25.2606 109.817 25.9631 108.047 26.7885 106.353L22.261 104.147C21.3253 106.069 20.5286 108.075 19.8925 110.111Z" fill="#00AFFF"/>
<path d="M88.42 97.0785C89.7082 98.4554 90.9013 99.9401 91.967 101.49L96.1168 98.6362C94.9091 96.8801 93.5569 95.199 92.0984 93.6388L88.42 97.0785Z" fill="#00AFFF"/>
<path d="M34.0331 156.331L37.1802 152.399C35.7091 151.222 34.3151 149.924 33.0364 148.543L29.3399 151.963C30.7883 153.528 32.3671 154.998 34.0331 156.331Z" fill="#00AFFF"/>
<path d="M101.704 110.141C101.071 108.103 100.278 106.096 99.345 104.176L94.8149 106.377C95.6374 108.069 96.3369 109.838 96.8949 111.634L101.704 110.141Z" fill="#00AFFF"/>
<path d="M188.711 184.964H5.03619V19.4896H23.9511C18.9708 26.7185 16.0504 35.4709 16.0504 44.8941C16.0504 56.5177 25.6624 73.4524 35.8048 88.0866C35.2725 88.4693 34.7442 88.8652 34.233 89.2696L37.358 93.219C37.7976 92.8709 38.2544 92.5335 38.7122 92.2032C42.086 96.8939 45.4219 101.25 48.3893 104.994C42.4269 109.105 38.7893 115.919 38.7893 123.237C38.7893 135.455 48.7297 145.396 60.9485 145.396C73.1673 145.396 83.1078 135.455 83.1078 123.237C83.1078 115.917 79.4696 109.101 73.5058 104.991C76.4429 101.286 79.7406 96.982 83.0786 92.3472C83.4774 92.6383 83.8703 92.9359 84.2555 93.2411L87.383 89.2937C86.9262 88.9316 86.4594 88.5801 85.9865 88.2361C96.1686 73.5682 105.848 56.557 105.848 44.8941C105.848 35.4714 102.927 26.719 97.9464 19.4896H129.117V14.4534H93.918C85.7085 5.57154 73.9666 0 60.9455 0C47.9269 0 36.1871 5.57154 27.9796 14.4534H0V190H188.711V184.964ZM78.0711 123.236C78.0711 132.678 70.3899 140.359 60.948 140.359C51.5062 140.359 43.825 132.678 43.825 123.236C43.825 117.457 46.756 112.077 51.547 108.925C52.1609 109.679 52.7456 110.391 53.3021 111.064C49.3441 113.632 46.8779 118.07 46.8779 122.876C46.8779 130.634 53.1893 136.946 60.9475 136.946C68.7073 136.946 75.0207 130.634 75.0207 122.876C75.0207 118.068 72.5519 113.628 68.5894 111.061C69.1464 110.388 69.7311 109.676 70.3456 108.922C75.139 112.073 78.0711 117.454 78.0711 123.236ZM65.3139 114.966C68.1724 116.546 69.985 119.575 69.985 122.877C69.985 127.858 65.9308 131.91 60.948 131.91C55.9672 131.91 51.9146 127.858 51.9146 122.877C51.9146 119.578 53.7241 116.55 56.5781 114.969C57.9449 116.573 58.8328 117.581 59.0589 117.836L60.944 119.966L62.8295 117.836C63.0567 117.58 63.9451 116.571 65.3139 114.966ZM60.9445 5.03569C82.927 5.03569 100.812 22.9157 100.812 44.8936C100.812 64.3253 69.09 102.766 60.9445 112.315C52.7979 102.764 21.0865 64.3323 21.0865 44.8936C21.0865 22.9162 38.967 5.03569 60.9445 5.03569Z" fill="#00AFFF"/>
<path d="M153.29 19.4891H239.431V184.964H197.998V190H244.467V14.4529H153.29V19.4891Z" fill="#00AFFF"/>
<path d="M145.567 14.4529H136.916V19.4891H145.567V14.4529Z" fill="#00AFFF"/>
<path d="M114.306 157.135L137.655 131.546H226.968V51.2987H114.306V157.135ZM119.342 56.3349H221.932V126.511H135.432L119.342 144.144V56.3349Z" fill="#00AFFF"/>
<path d="M207.152 75.0705H145.903V80.1067H207.152V75.0705Z" fill="#00AFFF"/>
<path d="M140.382 75.0705H134.122V80.1067H140.382V75.0705Z" fill="#00AFFF"/>
<path d="M185.243 103.836H134.122V108.872H185.243V103.836Z" fill="#00AFFF"/>
<path d="M207.152 89.4529H197.023V94.4891H207.152V89.4529Z" fill="#00AFFF"/>
<path d="M191.806 89.4529H134.122V94.4891H191.806V89.4529Z" fill="#00AFFF"/>
</svg>
