<svg width="85" height="89" viewBox="0 0 85 89" fill="none" xmlns="http://www.w3.org/2000/svg">
<rect x="0.393066" y="0.769951" width="84.4951" height="87.277" rx="30" fill="#00AFFF"/>
<path d="M69.1242 9.23712H16.1571C11.9954 9.23712 8.59033 12.7543 8.59033 17.053V71.7639C8.59033 76.0626 11.9954 79.5798 16.1571 79.5798H69.1242C73.2859 79.5798 76.6909 76.0626 76.6909 71.7639V17.053C76.6909 12.7543 73.2859 9.23712 69.1242 9.23712ZM69.1242 71.7639H16.1571V17.053H69.1242V71.7639Z" fill="white"/>
<path d="M22.397 28.8441H40.0002V34.2989H22.397V28.8441ZM46.1613 58.0455H63.7644V63.5003H46.1613V58.0455ZM46.1613 48.9541H63.7644V54.4089H46.1613V48.9541ZM28.5581 66.2277H33.8391V58.9546H40.8803V53.4998H33.8391V46.2267H28.5581V53.4998H21.5168V58.9546H28.5581V66.2277ZM49.9987 40.5901L54.9628 35.4626L59.9269 40.5901L63.6588 36.7354L58.6947 31.5715L63.6588 26.4439L59.9269 22.5892L54.9628 27.7167L49.9987 22.5892L46.2669 26.4439L51.231 31.5715L46.2669 36.7354L49.9987 40.5901Z" fill="white"/>
</svg>
