<svg width="81" height="85" viewBox="0 0 81 85" fill="none" xmlns="http://www.w3.org/2000/svg">
<path d="M67.2057 54.3111C63.04 54.3111 59.0408 53.6118 55.3083 52.318C54.7223 52.1222 54.0967 52.0968 53.4981 52.2446C52.8995 52.3924 52.3503 52.7078 51.909 53.1572L44.5773 60.8499C35.1166 55.8015 27.4269 47.7332 22.6153 37.8068L29.9471 30.0792C30.3885 29.6398 30.7013 29.0774 30.8489 28.4581C30.9965 27.8388 30.9726 27.1881 30.7802 26.5825C29.516 22.5545 28.8747 18.3401 28.8807 14.0994C28.8807 12.1762 27.381 10.6027 25.548 10.6027H13.8839C12.0509 10.6027 10.5513 12.1762 10.5513 14.0994C10.5513 46.9331 35.9125 73.5428 67.2057 73.5428C69.0387 73.5428 70.5383 71.9693 70.5383 70.0462V57.8078C70.5383 55.8846 69.0387 54.3111 67.2057 54.3111ZM63.8731 42.0728H70.5383C70.5383 33.7264 67.3783 25.7219 61.7534 19.8201C56.1286 13.9183 48.4996 10.6027 40.5448 10.6027V17.596C53.442 17.596 63.8731 28.5406 63.8731 42.0728ZM50.5427 42.0728H57.2079C57.2079 32.4219 49.7428 24.5894 40.5448 24.5894V31.5827C46.077 31.5827 50.5427 36.2683 50.5427 42.0728Z" fill="white"/>
</svg>
