<svg width="81" height="89" viewBox="0 0 81 89" fill="none" xmlns="http://www.w3.org/2000/svg">
<g clip-path="url(#clip0)">
<path d="M38.7949 88.2304C38.5168 88.2299 38.2426 88.1671 37.9939 88.047L12.6012 75.8432C12.302 75.6996 12.0504 75.4785 11.8746 75.2046C11.6988 74.9307 11.6059 74.6151 11.6062 74.2931V49.882C11.6065 49.5606 11.6998 49.2457 11.8756 48.9725C12.0513 48.6993 12.3026 48.4787 12.6012 48.3353L37.9939 36.1281C38.2427 36.0086 38.5169 35.9465 38.7949 35.9465C39.073 35.9465 39.3472 36.0086 39.596 36.1281L64.9887 48.3353C65.2873 48.4787 65.5386 48.6993 65.7143 48.9725C65.8901 49.2457 65.9833 49.5606 65.9837 49.882V74.2931C65.984 74.6151 65.8911 74.9307 65.7153 75.2046C65.5395 75.4785 65.2878 75.6996 64.9887 75.8432L39.596 88.047C39.3473 88.1671 39.0731 88.2299 38.7949 88.2304ZM15.1983 73.2239L38.7949 84.5662L62.3916 73.2239V50.9685L38.7949 39.6089L15.1983 50.9685V73.2239Z" fill="white"/>
<path d="M38.795 63.771C38.5171 63.7715 38.2429 63.7099 37.9939 63.591L12.6048 51.4322C12.1761 51.228 11.8492 50.8681 11.6959 50.4318C11.5427 49.9954 11.5757 49.5182 11.7876 49.1053C11.9996 48.6923 12.3732 48.3774 12.8262 48.2298C13.2793 48.0821 13.7746 48.1139 14.2033 48.3181L38.795 60.0825L63.3866 48.3181C63.5989 48.217 63.8298 48.1571 64.066 48.142C64.3023 48.1268 64.5394 48.1567 64.7637 48.2298C64.988 48.3028 65.1952 48.4178 65.3734 48.568C65.5516 48.7182 65.6974 48.9008 65.8023 49.1053C65.9073 49.3097 65.9694 49.5321 65.9851 49.7597C66.0009 49.9873 65.9699 50.2157 65.894 50.4318C65.8181 50.6478 65.6988 50.8474 65.5429 51.019C65.3869 51.1907 65.1974 51.3311 64.9851 51.4322L39.596 63.591C39.347 63.7099 39.0728 63.7715 38.795 63.771V63.771Z" fill="white"/>
<path d="M51.4896 57.6915C51.2129 57.6915 50.94 57.6299 50.6921 57.5115L25.2994 45.3527C24.8707 45.1485 24.5438 44.7887 24.3905 44.3523C24.2372 43.9159 24.2702 43.4387 24.4822 43.0258C24.6942 42.6128 25.0678 42.2979 25.5208 42.1503C25.9738 42.0027 26.4692 42.0344 26.8979 42.2386L52.2906 54.4286C52.6539 54.602 52.9456 54.8887 53.1182 55.2421C53.2908 55.5955 53.3342 55.9947 53.2414 56.3749C53.1486 56.755 52.9249 57.0938 52.6068 57.3359C52.2888 57.5781 51.895 57.7095 51.4896 57.7088V57.6915Z" fill="white"/>
<path d="M38.795 88.2305C38.3186 88.2305 37.8618 88.0482 37.525 87.7237C37.1881 87.3993 36.9989 86.9592 36.9989 86.5004V62.0409C36.9989 61.582 37.1881 61.142 37.525 60.8175C37.8618 60.4931 38.3186 60.3108 38.795 60.3108C39.2713 60.3108 39.7281 60.4931 40.065 60.8175C40.4018 61.142 40.591 61.582 40.591 62.0409V86.5004C40.591 86.9592 40.4018 87.3993 40.065 87.7237C39.7281 88.0482 39.2713 88.2305 38.795 88.2305V88.2305Z" fill="white"/>
<path d="M39.3459 1.07043C32.743 1.07043 27.4026 6.19845 27.4026 12.5388C27.4026 21.1401 39.3459 33.8373 39.3459 33.8373C39.3459 33.8373 51.2892 21.1401 51.2892 12.5388C51.2892 6.19845 45.9489 1.07043 39.3459 1.07043ZM39.3459 16.6347C38.2146 16.6347 37.1297 16.2032 36.3298 15.4351C35.5298 14.6669 35.0804 13.6251 35.0804 12.5388C35.0804 11.4525 35.5298 10.4108 36.3298 9.64263C37.1297 8.8745 38.2146 8.44298 39.3459 8.44298C40.4772 8.44298 41.5621 8.8745 42.3621 9.64263C43.162 10.4108 43.6114 11.4525 43.6114 12.5388C43.6114 13.6251 43.162 14.6669 42.3621 15.4351C41.5621 16.2032 40.4772 16.6347 39.3459 16.6347Z" fill="white"/>
</g>
<defs>
<clipPath id="clip0">
<rect x="0.388306" y="0.399063" width="79.9828" height="87.9484" rx="30" />
</clipPath>
</defs>
</svg>
