<svg width="56" height="59" viewBox="0 0 56 59" fill="none" xmlns="http://www.w3.org/2000/svg">
<path d="M55.712 53.4009L51.6679 41.3H47.2303L49.6946 53.1H6.30692L8.77126 41.3H4.33368L0.286605 53.4009C-0.739956 56.4807 1.07945 59 4.33368 59H51.6679C54.9221 59 56.7415 56.4807 55.712 53.4009ZM42.7927 14.75C42.7927 10.8381 41.2343 7.08634 38.4603 4.32018C35.6862 1.55401 31.9239 0 28.0008 0C24.0777 0 20.3153 1.55401 17.5413 4.32018C14.7673 7.08634 13.2088 10.8381 13.2088 14.75C13.2088 28.8363 28.0008 44.25 28.0008 44.25C28.0008 44.25 42.7927 28.8363 42.7927 14.75ZM20.0131 14.927C20.0131 10.5286 23.5869 6.96495 28.0008 6.96495C30.1189 6.96495 32.1502 7.80396 33.6479 9.29741C35.1456 10.7909 35.987 12.8164 35.987 14.9285C35.987 17.0405 35.1456 19.0661 33.6479 20.5595C32.1502 22.053 30.1189 22.892 28.0008 22.892C25.8823 22.892 23.8506 22.0528 22.3527 20.5591C20.8547 19.0654 20.0131 17.0394 20.0131 14.927Z" fill="#10B4FF"/>
</svg>
