<svg width="60" height="48" viewBox="0 0 60 48" fill="none" xmlns="http://www.w3.org/2000/svg">
<path d="M27 36V3C27 2.20435 27.3161 1.44129 27.8787 0.87868C28.4413 0.316071 29.2044 0 30 0C30.7956 0 31.5587 0.316071 32.1213 0.87868C32.6839 1.44129 33 2.20435 33 3V36H36C36.7957 36 37.5587 36.3161 38.1213 36.8787C38.6839 37.4413 39 38.2043 39 39C39 39.7956 38.6839 40.5587 38.1213 41.1213C37.5587 41.6839 36.7957 42 36 42H33V45C33 45.7956 32.6839 46.5587 32.1213 47.1213C31.5587 47.6839 30.7956 48 30 48C29.2044 48 28.4413 47.6839 27.8787 47.1213C27.3161 46.5587 27 45.7956 27 45V42H24C23.2044 42 22.4413 41.6839 21.8787 41.1213C21.3161 40.5587 21 39.7956 21 39C21 38.2043 21.3161 37.4413 21.8787 36.8787C22.4413 36.3161 23.2044 36 24 36H27ZM48 6V3C48 2.20435 48.3161 1.44129 48.8787 0.87868C49.4413 0.316071 50.2043 0 51 0C51.7957 0 52.5587 0.316071 53.1213 0.87868C53.6839 1.44129 54 2.20435 54 3V6H57C57.7957 6 58.5587 6.31607 59.1213 6.87868C59.6839 7.44129 60 8.20435 60 9C60 9.79565 59.6839 10.5587 59.1213 11.1213C58.5587 11.6839 57.7957 12 57 12H54V45C54 45.7956 53.6839 46.5587 53.1213 47.1213C52.5587 47.6839 51.7957 48 51 48C50.2043 48 49.4413 47.6839 48.8787 47.1213C48.3161 46.5587 48 45.7956 48 45V12H45C44.2043 12 43.4413 11.6839 42.8787 11.1213C42.3161 10.5587 42 9.79565 42 9C42 8.20435 42.3161 7.44129 42.8787 6.87868C43.4413 6.31607 44.2043 6 45 6H48ZM12 15H15C15.7956 15 16.5587 15.3161 17.1213 15.8787C17.6839 16.4413 18 17.2043 18 18C18 18.7956 17.6839 19.5587 17.1213 20.1213C16.5587 20.6839 15.7956 21 15 21H12V45C12 45.7956 11.6839 46.5587 11.1213 47.1213C10.5587 47.6839 9.79565 48 9 48C8.20435 48 7.44129 47.6839 6.87868 47.1213C6.31607 46.5587 6 45.7956 6 45V21H3C2.20435 21 1.44129 20.6839 0.87868 20.1213C0.31607 19.5587 0 18.7956 0 18C0 17.2043 0.31607 16.4413 0.87868 15.8787C1.44129 15.3161 2.20435 15 3 15H6V3C6 2.20435 6.31607 1.44129 6.87868 0.87868C7.44129 0.316071 8.20435 0 9 0C9.79565 0 10.5587 0.316071 11.1213 0.87868C11.6839 1.44129 12 2.20435 12 3V15Z" fill="#10B4FF"/>
</svg>
