<svg width="190" height="190" viewBox="0 0 190 190" fill="none" xmlns="http://www.w3.org/2000/svg">
<path d="M137.903 64.3548H117.46L134.489 44.889C136.69 42.3761 137.903 39.1492 137.903 35.8089V35.2419C137.903 27.6389 131.716 21.4516 124.113 21.4516C116.51 21.4516 110.323 27.6389 110.323 35.2419V39.8387H116.452V35.2419C116.452 31.016 119.887 27.5806 124.113 27.5806C128.339 27.5806 131.774 31.016 131.774 35.2419V35.8089C131.774 37.666 131.1 39.4556 129.877 40.8531L110.323 63.2026V70.4839H137.903V64.3548Z" fill="#00AFFF"/>
<path d="M162.419 70.4839H168.548V61.2903H174.677V55.1613H168.548V21.4516H160.525L144.032 54.438V61.2903H162.419V70.4839ZM150.523 55.1613L162.419 31.3684V55.1613H150.523Z" fill="#00AFFF"/>
<path d="M151.402 96.9214C173.439 92.1224 190 72.485 190 49.0323C190 21.9971 168.003 0 140.968 0C117.515 0 97.8776 16.5606 93.0785 38.5976C87.6697 37.4086 82.1505 36.7742 76.6129 36.7742C34.3685 36.7742 0 71.1427 0 113.387C0 155.631 34.3685 190 76.6129 190C118.857 190 153.226 155.631 153.226 113.387C153.226 107.85 152.591 102.33 151.402 96.9214ZM140.968 6.12903C164.626 6.12903 183.871 25.3742 183.871 49.0323C183.871 72.6903 164.626 91.9355 140.968 91.9355C117.31 91.9355 98.0645 72.6903 98.0645 49.0323C98.0645 25.3742 117.31 6.12903 140.968 6.12903ZM134.719 110.323H128.71V116.452H134.682C133.962 130.193 128.48 142.662 119.829 152.27L115.615 148.056L111.282 152.389L115.495 156.603C105.888 165.257 93.4187 170.736 79.6774 171.457V165.484H73.5484V171.457C59.8071 170.736 47.3376 165.254 37.7303 156.603L41.944 152.389L37.6108 148.056L33.3971 152.27C24.7429 142.662 19.2635 130.193 18.5434 116.452H24.5161V110.323H18.5434C19.2635 96.5813 24.746 84.1118 33.3971 74.5045L37.6108 78.7182L41.944 74.385L37.7303 70.1713C47.3376 61.5171 59.8071 56.0377 73.5484 55.3176V61.2903H79.6774V55.2808C84.0842 55.5137 88.4481 56.2553 92.7169 57.4873C96.2595 77.7468 112.25 93.7374 132.513 97.2831C133.742 101.552 134.483 105.916 134.719 110.323ZM76.6129 183.871C37.7456 183.871 6.12903 152.254 6.12903 113.387C6.12903 74.5198 37.7456 42.9032 76.6129 42.9032C81.841 42.9032 87.0537 43.5192 92.1561 44.6715C92.0274 46.1118 91.9355 47.5613 91.9355 49.0323C91.9355 49.6727 92.006 50.2979 92.0305 50.9353C86.974 49.6819 81.8073 49.0323 76.6129 49.0323C41.1289 49.0323 12.2581 77.9031 12.2581 113.387C12.2581 148.871 41.1289 177.742 76.6129 177.742C112.097 177.742 140.968 148.871 140.968 113.387C140.968 108.193 140.318 103.026 139.065 97.9695C139.702 97.994 140.327 98.0645 140.968 98.0645C142.439 98.0645 143.888 97.9726 145.329 97.8439C146.481 102.946 147.097 108.159 147.097 113.387C147.097 152.254 115.48 183.871 76.6129 183.871Z" fill="#00AFFF"/>
<path d="M85.8065 113.387C85.8065 109.397 83.2353 106.026 79.6774 104.757V67.4194H73.5484V104.757C69.9905 106.026 67.4194 109.397 67.4194 113.387C67.4194 118.456 71.5442 122.581 76.6129 122.581C78.0287 122.581 79.3526 122.234 80.5508 121.658L102.027 143.134L106.36 138.801L84.884 117.325C85.4602 116.127 85.8065 114.803 85.8065 113.387ZM73.5484 113.387C73.5484 111.695 74.9213 110.323 76.6129 110.323C78.3045 110.323 79.6774 111.695 79.6774 113.387C79.6774 115.079 78.3045 116.452 76.6129 116.452C74.9213 116.452 73.5484 115.079 73.5484 113.387Z" fill="#00AFFF"/>
<path d="M168.548 104.194C163.48 104.194 159.355 108.318 159.355 113.387C159.355 117.221 161.718 120.509 165.061 121.885C163.14 142.062 154.338 161.053 140.079 175.597L144.455 179.887C159.775 164.264 169.198 143.839 171.193 122.145C174.969 121.002 177.742 117.533 177.742 113.387C177.742 108.318 173.617 104.194 168.548 104.194ZM168.548 116.452C166.857 116.452 165.484 115.079 165.484 113.387C165.484 111.695 166.857 110.323 168.548 110.323C170.24 110.323 171.613 111.695 171.613 113.387C171.613 115.079 170.24 116.452 168.548 116.452Z" fill="#00AFFF"/>
<path d="M16.1899 48.214C30.4644 34.9722 48.8301 26.8298 68.1304 24.9881C69.5217 28.3069 72.7976 30.6452 76.613 30.6452C81.6817 30.6452 85.8065 26.5203 85.8065 21.4516C85.8065 16.3829 81.6817 12.2581 76.613 12.2581C72.4697 12.2581 68.9976 15.0314 67.8546 18.8069C47.1047 20.7192 27.36 29.499 12.0252 43.7214L16.1899 48.214ZM76.613 18.3871C78.3046 18.3871 79.6775 19.76 79.6775 21.4516C79.6775 23.1432 78.3046 24.5161 76.613 24.5161C74.9213 24.5161 73.5484 23.1432 73.5484 21.4516C73.5484 19.76 74.9213 18.3871 76.613 18.3871Z" fill="#00AFFF"/>
</svg>
