<svg width="191" height="190" viewBox="0 0 191 190" fill="none" xmlns="http://www.w3.org/2000/svg">
<path d="M188.276 43.6309L188.289 43.6007L97.6068 0.418863C97.6068 0.418863 97.1016 0 95.75 0C94.3984 0 93.8932 0.418863 93.8932 0.418863L3.21136 43.6007C3.21136 43.6007 3.21568 43.618 3.22 43.6223C2.87886 43.7691 0.75 44.9264 0.75 47.5V142.5C0.75 144.214 1.76909 145.674 3.22432 146.369L3.21136 146.395L93.8932 189.577L93.9061 189.551C94.4718 189.823 95.085 190 95.75 190C96.415 190 97.0282 189.823 97.5939 189.551L97.6068 189.577L188.289 146.395L188.276 146.369C189.731 145.674 190.75 144.214 190.75 142.5V47.5C190.75 46.5543 190.197 44.5464 188.276 43.6309ZM143.354 31.7689L56.8864 72.1007V114.531L43.9318 109.349V64.7727L129.155 25.0066L143.354 31.7689ZM95.75 9.09841L118.956 20.153L38.3182 58.5502L15.1123 47.5L95.75 9.09841ZM91.4318 178.842L9.38636 139.771V54.34L35.2955 66.677V112.273C35.2955 114.091 36.4268 115.628 38.0159 116.267L38.0116 116.284L59.5205 124.886C58.5618 124.48 60.1466 125.227 61.2045 125.227C63.5925 125.227 65.5227 123.297 65.5227 120.909V81.0695L91.4318 93.4066V178.842ZM95.75 85.9016L72.108 74.6441L153.463 36.588L176.388 47.5L95.75 85.9016ZM182.114 139.771L100.068 178.842V93.4109L182.114 54.34V139.771Z" fill="#00AFFF"/>
</svg>
