<svg width="133" height="85" viewBox="0 0 133 85" fill="none" xmlns="http://www.w3.org/2000/svg">
<path d="M0 18.6085H51.542L55.5068 26.4835H3.96477L0 18.6085ZM5.28636 34.3585H56.8284L60.7931 42.2335H9.25113L5.28636 34.3585ZM106.568 76.3583C110.956 76.3583 114.498 72.8408 114.498 68.4833C114.498 64.1258 110.956 60.6083 106.568 60.6083C102.181 60.6083 98.6387 64.1258 98.6387 68.4833C98.6387 72.8408 102.181 76.3583 106.568 76.3583ZM114.498 29.1084H101.282V46.5287H124.859L114.498 29.1084ZM38.3261 76.3584C42.7138 76.3584 46.2556 72.8409 46.2556 68.4834C46.2556 64.1259 42.7138 60.6084 38.3261 60.6084C33.9384 60.6084 30.3966 64.1259 30.3966 68.4834C30.3966 72.8409 33.9384 76.3584 38.3261 76.3584ZM111.608 21.2334C115.051 21.2334 118.251 23.0045 120.08 25.9215L131.473 44.0923C132.471 45.6843 133 47.5253 133 49.4043V63.4833C133 66.2447 130.761 68.4833 128 68.4833H122.427C122.427 77.1983 115.344 84.2333 106.568 84.2333C97.7928 84.2333 90.7091 77.1983 90.7091 68.4833L54.1852 68.4834C54.1852 77.1984 47.0486 84.2334 38.3261 84.2334C29.5507 84.2334 22.467 77.1984 22.467 68.4834C16.6279 68.4834 11.8943 63.7498 11.8943 57.9107V50.1084H22.467V57.9834H26.4847C29.3922 54.7809 33.6212 52.7334 38.3261 52.7334C43.031 52.7334 47.2601 54.7809 50.1675 57.9834L90.7091 57.9833V10.7334L11.8943 10.7335C11.8943 4.90601 16.5992 0.233513 22.467 0.233513L86.2818 0.23342C94.5661 0.233408 101.282 6.94914 101.282 15.2334V21.2334H111.608Z" fill="#10B4FF"/>
</svg>
