<svg width="81" height="85" viewBox="0 0 81 85" fill="none" xmlns="http://www.w3.org/2000/svg">
<path d="M67.2056 54.3111C63.0398 54.3111 59.0407 53.6118 55.3081 52.318C54.7222 52.1222 54.0966 52.0968 53.498 52.2446C52.8993 52.3924 52.3501 52.7078 51.9089 53.1572L44.5771 60.8499C35.1165 55.8015 27.4267 47.7332 22.6152 37.8068L29.9469 30.0792C30.3883 29.6398 30.7012 29.0774 30.8487 28.4581C30.9963 27.8388 30.9725 27.1881 30.7801 26.5825C29.5159 22.5545 28.8746 18.3401 28.8805 14.0994C28.8805 12.1762 27.3808 10.6027 25.5479 10.6027H13.8837C12.0508 10.6027 10.5511 12.1762 10.5511 14.0994C10.5511 46.9331 35.9123 73.5428 67.2056 73.5428C69.0385 73.5428 70.5382 71.9693 70.5382 70.0462V57.8078C70.5382 55.8846 69.0385 54.3111 67.2056 54.3111ZM63.873 42.0728H70.5382C70.5382 33.7264 67.3782 25.7219 61.7533 19.8201C56.1284 13.9183 48.4994 10.6027 40.5447 10.6027V17.596C53.4419 17.596 63.873 28.5406 63.873 42.0728ZM50.5425 42.0728H57.2077C57.2077 32.4219 49.7427 24.5894 40.5447 24.5894V31.5827C46.0768 31.5827 50.5425 36.2683 50.5425 42.0728Z" fill="#10B4FF"/>
</svg>
