<svg width="85" height="89" viewBox="0 0 85 89" fill="none" xmlns="http://www.w3.org/2000/svg">
<path d="M69.1241 9.23712H16.157C11.9953 9.23712 8.5903 12.7543 8.5903 17.053V71.7639C8.5903 76.0626 11.9953 79.5798 16.157 79.5798H69.1241C73.2858 79.5798 76.6908 76.0626 76.6908 71.7639V17.053C76.6908 12.7543 73.2858 9.23712 69.1241 9.23712ZM69.1241 71.7639H16.157V17.053H69.1241V71.7639Z" fill="#10B4FF"/>
<path d="M22.397 28.8441H40.0001V34.2989H22.397V28.8441ZM46.1612 58.0455H63.7644V63.5003H46.1612V58.0455ZM46.1612 48.9541H63.7644V54.4089H46.1612V48.9541ZM28.5581 66.2277H33.839V58.9546H40.8803V53.4998H33.839V46.2267H28.5581V53.4998H21.5168V58.9546H28.5581V66.2277ZM49.9987 40.5901L54.9628 35.4626L59.9269 40.5901L63.6587 36.7354L58.6947 31.5715L63.6587 26.4439L59.9269 22.5892L54.9628 27.7167L49.9987 22.5892L46.2668 26.4439L51.2309 31.5715L46.2668 36.7354L49.9987 40.5901Z" fill="#10B4FF"/>
</svg>
