<svg width="24" height="33" viewBox="0 0 24 33" fill="none" xmlns="http://www.w3.org/2000/svg">
<path d="M11.9433 0C5.34037 0 0 5.12802 0 11.4684C0 20.0697 11.9433 32.7669 11.9433 32.7669C11.9433 32.7669 23.8866 20.0697 23.8866 11.4684C23.8866 5.12802 18.5463 0 11.9433 0ZM11.9433 15.5643C10.812 15.5643 9.72711 15.1327 8.92718 14.3646C8.12724 13.5965 7.67785 12.5547 7.67785 11.4684C7.67785 10.3821 8.12724 9.34032 8.92718 8.5722C9.72711 7.80408 10.812 7.37255 11.9433 7.37255C13.0746 7.37255 14.1595 7.80408 14.9595 8.5722C15.7594 9.34032 16.2088 10.3821 16.2088 11.4684C16.2088 12.5547 15.7594 13.5965 14.9595 14.3646C14.1595 15.1327 13.0746 15.5643 11.9433 15.5643Z" fill="#02628B"/>
</svg>
