<svg width="38" height="34" viewBox="0 0 38 34" fill="none" xmlns="http://www.w3.org/2000/svg">
<path d="M37.5488 20.4L31.6113 9.06667H33.25C33.5649 9.06667 33.867 8.94726 34.0897 8.73472C34.3124 8.52218 34.4375 8.23391 34.4375 7.93333C34.4375 7.63275 34.3124 7.34449 34.0897 7.13195C33.867 6.9194 33.5649 6.8 33.25 6.8H31.3738C30.098 5.47379 28.5607 4.40075 26.8499 3.6423C25.139 2.88386 23.2883 2.4549 21.4035 2.38L21.375 2.26667C21.375 1.66551 21.1248 1.08897 20.6794 0.663891C20.234 0.238809 19.6299 0 19 0C18.3701 0 17.766 0.238809 17.3206 0.663891C16.8752 1.08897 16.625 1.66551 16.625 2.26667V2.38C12.7865 2.53185 9.16416 4.11674 6.53837 6.7932L4.75 6.8C4.43506 6.8 4.13301 6.9194 3.91031 7.13195C3.68761 7.34449 3.5625 7.63275 3.5625 7.93333C3.5625 8.23391 3.68761 8.52218 3.91031 8.73472C4.13301 8.94726 4.43506 9.06667 4.75 9.06667H6.38875L0.45125 20.4H0C0 22.8933 3.1825 24.9333 7.125 24.9333C11.0675 24.9333 14.25 22.8933 14.25 20.4H13.7987L7.7425 8.86267C7.8915 8.77719 8.02013 8.66292 8.12012 8.5272C9.17064 7.34948 10.4701 6.39697 11.9334 5.73212C13.3966 5.06726 14.9906 4.70509 16.6108 4.66933L16.625 29.4667H14.25V31.7333H9.5V34H28.5V31.7333H23.75V29.4667H21.375V4.66933C22.9766 4.69973 24.5527 5.05808 25.9966 5.72014C27.4406 6.3822 28.7187 7.33251 29.7445 8.5068C29.856 8.68321 30.014 8.8286 30.2029 8.9284L24.2012 20.4H23.75C23.75 22.8933 26.9325 24.9333 30.875 24.9333C34.8175 24.9333 38 22.8933 38 20.4H37.5488ZM11.875 20.4H2.375L7.125 11.4693L11.875 20.4ZM26.125 20.4L30.875 11.4693L35.625 20.4H26.125Z" fill="#02628B"/>
</svg>
