<svg xmlns="http://www.w3.org/2000/svg" viewBox="0 0 768 331"><defs><style>.cls-1{fill:#002846;}.cls-2,.cls-3{fill:#fff;fill-rule:evenodd;}.cls-2{opacity:0.05;}.cls-3{opacity:0.18;}</style></defs><g id="Layer_4" data-name="Layer 4"><rect class="cls-1" width="768" height="331"/><path class="cls-2" d="M362,41c0,122.61-107.23,222-239.5,222A252.7,252.7,0,0,1,0,231.8V0H357.92A207.17,207.17,0,0,1,362,41Z"/><path class="cls-2" d="M0,0,.35,230.84A255.43,255.43,0,0,0,87.5,246C219.77,246,327,146.61,327,24a209.17,209.17,0,0,0-1.38-24"/><path class="cls-3" d="M768,206V331H600c0-72.63,58.87-131,131.5-131C754,200,768,206,768,206Z"/><path class="cls-3" d="M768,243v88H600c0-72.63,52.89-110,132-110C768,221,768,243,768,243Z"/></g></svg>