<svg xmlns="http://www.w3.org/2000/svg" viewBox="0 0 366 117"><defs><style>.cls-1{fill:#003250;}.cls-2,.cls-7{fill:#fff;}.cls-2{stroke:#013152;stroke-miterlimit:10;stroke-width:0.68px;}.cls-3{fill:#02628b;}.cls-4{fill:#00aeff;}.cls-5{fill:#50caf7;}.cls-6{fill:#00afff;}</style></defs><g id="Layer_4" data-name="Layer 4"><rect class="cls-1" width="366.06" height="117.14"/><path class="cls-2" d="M197.88,71.53l-8.91-15h7.61l3.34,5.93c.87,1.73,1.83,3.54,2.75,5.27h.25c.77-1.73,1.6-3.54,2.38-5.27l2.85-5.93h7.34l-8.92,15.78,9.56,15.48h-7.62l-3.68-6.19c-1-1.83-2-3.74-3-5.52h-.25c-.9,1.78-1.78,3.65-2.68,5.52l-3.19,6.19h-7.34Z"/><path class="cls-2" d="M221.49,56.56h5.8l.54,3.34h.2c2.54-2.27,5.76-4.1,9.08-4.1,7.54,0,11.86,6.26,11.86,15.91,0,10.69-6.16,16.87-12.87,16.87-2.67,0-5.3-1.25-7.76-3.43l.23,5.19v9.85h-7.08ZM241.7,71.78c0-6.23-2-9.92-6.55-9.92-2.19,0-4.25,1.14-6.58,3.51V79.93a9.19,9.19,0,0,0,6,2.59C238.63,82.52,241.7,78.86,241.7,71.78Z"/><path class="cls-2" d="M256.12,56.56h5.79l.54,5.58h.2c2.15-4.07,5.34-6.34,8.57-6.34a7.35,7.35,0,0,1,3.41.64l-1.22,6.36a9.82,9.82,0,0,0-3.1-.51c-2.4,0-5.3,1.71-7.12,6.46V87.82h-7.07Z"/><path class="cls-2" d="M276.42,72.22c0-10.16,6.8-16.42,13.89-16.42,8.16,0,12.45,6.11,12.45,14.84a19.66,19.66,0,0,1-.3,3.56H283.32c.59,5.55,4,8.71,8.88,8.71a12.52,12.52,0,0,0,7-2.27l2.41,4.56a18.27,18.27,0,0,1-10.34,3.38C283,88.58,276.42,82.52,276.42,72.22Zm20.23-3c0-4.81-2.06-7.73-6.19-7.73-3.51,0-6.6,2.72-7.22,7.73Z"/><path class="cls-2" d="M306.54,84.23l3.29-4.66c2.67,2.17,5.26,3.49,8.32,3.49,3.29,0,4.84-1.6,4.84-3.74,0-2.62-3.27-3.79-6.49-5.07-3.95-1.54-8.47-3.89-8.47-9.11,0-5.42,4.23-9.34,11-9.34a15.93,15.93,0,0,1,10,3.74l-3.24,4.51c-2.12-1.61-4.24-2.73-6.61-2.73-3,0-4.47,1.5-4.47,3.47,0,2.46,3.05,3.41,6.31,4.65,4.08,1.58,8.65,3.62,8.65,9.44,0,5.37-4.11,9.7-11.72,9.7A18.43,18.43,0,0,1,306.54,84.23Z"/><path class="cls-2" d="M333,84.23l3.29-4.66c2.67,2.17,5.26,3.49,8.32,3.49,3.29,0,4.84-1.6,4.84-3.74,0-2.62-3.27-3.79-6.49-5.07-3.95-1.54-8.47-3.89-8.47-9.11,0-5.42,4.23-9.34,11-9.34a15.93,15.93,0,0,1,10,3.74l-3.24,4.51c-2.12-1.61-4.24-2.73-6.61-2.73-3,0-4.47,1.5-4.47,3.47,0,2.46,3.05,3.41,6.31,4.65,4.08,1.58,8.65,3.62,8.65,9.44,0,5.37-4.11,9.7-11.72,9.7A18.43,18.43,0,0,1,333,84.23Z"/><path class="cls-3" d="M22.08,29.22V42.44H13.42V29.27Z"/><polygon class="cls-4" points="30.42 29.17 30.42 42.44 22.08 42.44 22.08 29.22 30.42 29.17"/><polygon class="cls-5" points="38.75 29.13 38.75 42.44 30.42 42.44 30.42 29.17 38.75 29.13"/><path class="cls-6" d="M136.25,35.1l0,27.85c-2.17,0-4.19,14.13-10,19.15a7.1,7.1,0,0,1-11.33-.33C106,71.44,101.25,47.1,101.25,47.1s-6.2,25.56-12.33,33.67c-3.75,5.68-10.47,5.68-14.34-.4-2.79-3-7.32-16.25-10.5-26.43-.16-9.67-9.54-11.5-12.16-11.5H38.75V29.13l13.54-.08c15.5,0,20.22,7.73,21.63,10.22,3,5.15,8.16,26.33,8.16,26.33S87.73,45,92.23,36.78c3.87-7.73,12.55-9.54,17.16-.06,3.64,7,10.69,29.05,10.69,29.05l3.67-12.5c4.72-21.89,13.33-21.86,14-21.67C136.58,32.44,136.25,35.1,136.25,35.1Z"/><path class="cls-7" d="M185.08,30.76V40.93H153.5A2.08,2.08,0,0,0,151.42,43V53.93h33.66V64.26H151.42V75.51a2.08,2.08,0,0,0,2.08,2.09h31.58V87.76H146.92a7.66,7.66,0,0,1-7.67-7.66V38.43a7.67,7.67,0,0,1,7.67-7.67Z"/><path class="cls-7" d="M13.42,46.93h11.5v27.5H49.75s8.83-2.5,13.5-8.17l5.17,11.17s-6.84,8.83-17.5,9-37.5,0-37.5,0Z"/></g></svg>