<svg width="400" height="116" viewBox="0 0 400 116" fill="none" xmlns="http://www.w3.org/2000/svg">
<path d="M400 0H0V116H400V0Z" fill="#003250"/>
<path d="M216.227 70.8339L206.491 55.9799H214.806L218.456 61.8522C219.407 63.5654 220.456 65.3578 221.461 67.0709H221.734C222.576 65.3578 223.482 63.5654 224.335 61.8522L227.449 55.9799H235.47L225.723 71.6063L236.169 86.9357H227.842L223.821 80.8059C222.729 78.9937 221.636 77.1023 220.543 75.3397H220.27C219.286 77.1023 218.325 78.9541 217.341 80.8059L213.856 86.9357H205.835L216.227 70.8339Z" fill="white" stroke="#013152" stroke-width="0.68" stroke-miterlimit="10"/>
<path d="M242.026 56.0095H248.364L248.954 59.317H249.172C251.948 57.0691 255.466 55.2569 259.094 55.2569C267.333 55.2569 272.054 61.456 272.054 71.0121C272.054 81.598 265.323 87.7179 257.99 87.7179C255.073 87.7179 252.199 86.4801 249.511 84.3213L249.762 89.4608V99.2149H242.026V56.0095ZM264.11 71.0814C264.11 64.912 261.924 61.2579 256.952 61.2579C254.559 61.2579 252.308 62.3868 249.762 64.7338V79.1521C251.527 80.7061 253.86 81.6188 256.319 81.7169C260.755 81.7169 264.11 78.0925 264.11 71.0814Z" fill="white" stroke="#013152" stroke-width="0.68" stroke-miterlimit="10"/>
<path d="M279.867 56.0096H286.194L286.784 61.5352H287.002C289.351 57.5049 292.837 55.2569 296.367 55.2569C297.647 55.1957 298.924 55.413 300.093 55.8907L298.76 62.1888C297.668 61.8568 296.524 61.6863 295.372 61.6838C292.75 61.6838 289.581 63.3771 287.592 68.0809V86.9653H279.867V56.0096Z" fill="white" stroke="#013152" stroke-width="0.68" stroke-miterlimit="10"/>
<path d="M302.049 71.5171C302.049 61.456 309.479 55.2569 317.227 55.2569C326.143 55.2569 330.831 61.3074 330.831 69.9525C330.84 71.1342 330.73 72.3142 330.503 73.4778H309.589C310.233 78.9738 313.959 82.1031 319.292 82.1031C322.032 82.0651 324.697 81.2819 326.941 79.8552L329.574 84.3708C326.27 86.5003 322.33 87.6678 318.276 87.7179C309.239 87.7179 302.049 81.7169 302.049 71.5171ZM324.154 68.5463C324.154 63.7831 321.903 60.8915 317.391 60.8915C313.555 60.8915 310.179 63.5851 309.501 68.5463H324.154Z" fill="white" stroke="#013152" stroke-width="0.68" stroke-miterlimit="10"/>
<path d="M334.962 83.4102L338.557 78.7956C341.474 80.9445 344.304 82.2516 347.648 82.2516C351.243 82.2516 352.937 80.6672 352.937 78.548C352.937 75.9535 349.364 74.7949 345.845 73.5273C341.529 72.0023 336.59 69.6752 336.59 64.506C336.59 59.1387 341.212 55.2569 348.61 55.2569C352.614 55.3156 356.473 56.6236 359.537 58.9605L355.996 63.4266C353.68 61.8323 351.363 60.7232 348.773 60.7232C345.495 60.7232 343.889 62.2086 343.889 64.1594C343.889 66.5955 347.222 67.5362 350.784 68.7642C355.242 70.3288 360.236 72.3489 360.236 78.1123C360.236 83.43 355.745 87.7179 347.429 87.7179C342.854 87.6077 338.457 86.0884 334.962 83.4102Z" fill="white" stroke="#013152" stroke-width="0.68" stroke-miterlimit="10"/>
<path d="M363.875 83.4102L367.47 78.7956C370.387 80.9445 373.217 82.2516 376.561 82.2516C380.156 82.2516 381.85 80.6672 381.85 78.548C381.85 75.9535 378.277 74.7949 374.758 73.5273C370.442 72.0023 365.503 69.6752 365.503 64.506C365.503 59.1387 370.125 55.2569 377.523 55.2569C381.527 55.3156 385.386 56.6236 388.45 58.9605L384.91 63.4266C382.593 61.8323 380.276 60.7232 377.687 60.7232C374.409 60.7232 372.802 62.2086 372.802 64.1594C372.802 66.5955 376.135 67.5362 379.697 68.7642C384.156 70.3288 389.149 72.3489 389.149 78.1123C389.149 83.43 384.658 87.7179 376.343 87.7179C371.767 87.6077 367.37 86.0884 363.875 83.4102Z" fill="white" stroke="#013152" stroke-width="0.68" stroke-miterlimit="10"/>
<path d="M24.1272 28.9355V42.0269H14.6643V28.9851L24.1272 28.9355Z" fill="#02628B"/>
<path d="M33.2405 28.886V42.0269H24.1272V28.9356L33.2405 28.886Z" fill="#00AEFF"/>
<path d="M42.3428 28.8465V42.027H33.2405V28.8861L42.3428 28.8465Z" fill="#50CAF7"/>
<path d="M148.883 34.7584V62.3374C146.511 62.3374 144.304 76.3298 137.956 81.301C137.205 82.15 136.247 82.8296 135.157 83.2861C134.067 83.7427 132.876 83.9639 131.675 83.9322C130.475 83.9005 129.3 83.6169 128.241 83.1036C127.183 82.5903 126.27 81.8614 125.575 80.9742C115.828 70.7447 110.638 46.6416 110.638 46.6416C110.638 46.6416 103.863 71.9529 97.1644 79.9839C93.0667 85.6087 85.7236 85.6087 81.4948 79.5878C78.4461 76.617 73.4961 63.496 70.0213 53.415C69.8465 43.8392 59.5968 42.027 56.7339 42.027H42.3428V28.8465L57.1382 28.7673C74.0753 28.7673 79.2329 36.422 80.7736 38.8878C84.0518 43.9877 89.6902 64.9616 89.6902 64.9616C89.6902 64.9616 95.8641 44.562 100.781 36.422C105.01 28.7673 114.495 26.9749 119.532 36.3626C123.51 43.2945 131.213 65.1299 131.213 65.1299L135.224 52.7516C140.381 31.0746 149.79 31.1043 150.522 31.2925C149.243 32.1243 148.883 34.7584 148.883 34.7584Z" fill="#00AFFF"/>
<path d="M202.24 30.4606V40.5317H167.732C167.131 40.5317 166.555 40.7473 166.129 41.1314C165.703 41.5156 165.462 42.0369 165.459 42.5815V53.4051H202.24V63.6346H165.459V74.7751C165.458 75.0465 165.516 75.3154 165.629 75.5664C165.743 75.8174 165.91 76.0457 166.121 76.238C166.332 76.4303 166.583 76.5829 166.86 76.6871C167.136 76.7912 167.433 76.8448 167.732 76.8448H202.24V86.9059H160.542C159.442 86.9072 158.352 86.712 157.336 86.3313C156.319 85.9507 155.395 85.3922 154.616 84.6877C153.838 83.9832 153.22 83.1465 152.799 82.2256C152.378 81.3046 152.161 80.3174 152.161 79.3205V38.056C152.161 36.0416 153.044 34.1097 154.616 32.6853C156.187 31.2609 158.319 30.4606 160.542 30.4606H202.24Z" fill="white"/>
<path d="M14.6643 46.4733H27.2306V73.7056H54.3627C54.3627 73.7056 64.0114 71.23 69.1144 65.6152L74.7638 76.6764C74.7638 76.6764 67.2896 85.4205 55.6412 85.5889C43.9928 85.7572 14.6643 85.5889 14.6643 85.5889V46.4733Z" fill="white"/>
</svg>
