<svg width="47" height="49" viewBox="0 0 47 49" fill="none" xmlns="http://www.w3.org/2000/svg">
<path d="M44.3889 34.0278C41.125 34.0278 37.9917 33.4833 35.0672 32.4761C34.6081 32.3237 34.118 32.3039 33.6489 32.419C33.1799 32.534 32.7496 32.7796 32.4039 33.1294L26.6594 39.1183C19.247 35.188 13.2221 28.9068 9.45222 21.1789L15.1967 15.1628C15.5425 14.8207 15.7876 14.3829 15.9032 13.9008C16.0188 13.4186 16.0002 12.9121 15.8494 12.4406C14.8589 9.30471 14.3564 6.02373 14.3611 2.72222C14.3611 1.225 13.1861 0 11.75 0H2.61111C1.175 0 0 1.225 0 2.72222C0 28.2839 19.8706 49 44.3889 49C45.825 49 47 47.775 47 46.2778V36.75C47 35.2528 45.825 34.0278 44.3889 34.0278Z" fill="#02628B"/>
</svg>
