<svg width="50" height="39" viewBox="0 0 50 39" fill="none" xmlns="http://www.w3.org/2000/svg">
<path d="M48.223 0H1.65571C1.21664 0.000514611 0.7957 0.17521 0.485286 0.485745C0.174873 0.79628 0.000342861 1.21728 0 1.65636V4.98852C0 5.14204 0.166478 5.31823 0.302511 5.38949L24.7793 19.3704C24.842 19.4062 24.9131 19.4248 24.9853 19.4242C25.0591 19.4244 25.1316 19.4047 25.1952 19.3672L48.9323 5.40309C49.0657 5.3286 49.4194 5.13168 49.5522 5.04099C49.7128 4.93151 49.8787 4.8324 49.8787 4.63613V1.65571C49.8782 1.21675 49.7036 0.795911 49.3932 0.485516C49.0828 0.175121 48.6619 0.000514312 48.223 0Z" fill="#02628B"/>
<path d="M49.6723 10.0127C49.6086 9.97634 49.5364 9.95744 49.4631 9.95789C49.3897 9.95835 49.3178 9.97814 49.2545 10.0153L35.8216 17.9188C35.7681 17.95 35.7222 17.9928 35.6875 18.0441C35.6528 18.0954 35.6301 18.1539 35.6211 18.2152C35.6121 18.2765 35.617 18.339 35.6354 18.3982C35.6539 18.4573 35.6854 18.5115 35.7277 18.5568L49.1625 33.0391C49.201 33.081 49.2478 33.1143 49.2999 33.1371C49.3519 33.1598 49.4082 33.1715 49.465 33.1713C49.5748 33.1711 49.6799 33.1274 49.7575 33.0499C49.8351 32.9723 49.8788 32.8671 49.879 32.7574V10.3722C49.8792 10.2994 49.8603 10.2278 49.824 10.1646C49.7877 10.1015 49.7354 10.0491 49.6723 10.0127Z" fill="#02628B"/>
<path d="M31.9501 20.5727C31.8863 20.5032 31.8006 20.4578 31.7074 20.4438C31.6141 20.4299 31.5189 20.4484 31.4377 20.4962L26.0534 23.6645C25.7379 23.8468 25.3805 23.9439 25.0161 23.9463C24.6518 23.9486 24.2931 23.8562 23.9753 23.6781L19.2368 20.9711C19.1603 20.9275 19.072 20.9094 18.9845 20.9194C18.897 20.9294 18.815 20.967 18.7504 21.0268L0.756459 37.7173C0.709286 37.7614 0.673067 37.8159 0.650689 37.8765C0.628311 37.9371 0.620393 38.0021 0.627565 38.0662C0.634738 38.1304 0.656803 38.192 0.692002 38.2462C0.727201 38.3003 0.77456 38.3455 0.830305 38.3781C1.11014 38.5426 1.38027 38.621 1.65492 38.621H47.7461C47.8267 38.6211 47.9056 38.5976 47.973 38.5532C48.0404 38.5089 48.0933 38.4457 48.125 38.3716C48.1573 38.2979 48.1673 38.2163 48.1537 38.137C48.1401 38.0576 48.1036 37.984 48.0486 37.9253L31.9501 20.5727Z" fill="#02628B"/>
<path d="M14.7913 19.0524C14.839 19.0084 14.8756 18.9537 14.8982 18.8929C14.9209 18.832 14.9289 18.7667 14.9216 18.7022C14.9144 18.6377 14.8921 18.5758 14.8565 18.5216C14.8209 18.4673 14.7731 18.4221 14.7168 18.3897L0.617336 10.3366C0.554413 10.3009 0.483213 10.2823 0.410856 10.2827C0.338499 10.2831 0.267522 10.3026 0.205023 10.339C0.142524 10.3755 0.0906937 10.4277 0.0547154 10.4905C0.0187371 10.5533 -0.000127931 10.6244 6.60518e-06 10.6968V31.8272C-0.000449927 31.9079 0.0227685 31.987 0.0667878 32.0546C0.110807 32.1222 0.173695 32.1755 0.247667 32.2077C0.32164 32.24 0.403449 32.2499 0.482971 32.2361C0.562492 32.2224 0.636234 32.1856 0.695069 32.1303L14.7913 19.0524Z" fill="#02628B"/>
</svg>
