<svg width="46" height="46" viewBox="0 0 46 46" fill="none" xmlns="http://www.w3.org/2000/svg">
<path d="M44.7331 12.7606L40.5912 16.9025C40.1689 17.3248 39.486 17.3248 39.0637 16.9025L29.0906 6.92947C28.6683 6.50719 28.6683 5.82435 29.0906 5.40207L33.2326 1.26011C34.9128 -0.420036 37.6441 -0.420036 39.3333 1.26011L44.7331 6.65993C46.4223 8.34008 46.4223 11.0714 44.7331 12.7606ZM25.5326 8.96002L1.93859 32.5539L0.0338102 43.4704C-0.226749 44.9439 1.05808 46.2197 2.53158 45.9681L13.4481 44.0544L37.0422 20.4605C37.4644 20.0382 37.4644 19.3554 37.0422 18.9331L27.069 8.96002C26.6378 8.53774 25.9549 8.53774 25.5326 8.96002ZM11.148 30.5324C10.6538 30.0382 10.6538 29.2475 11.148 28.7534L24.9846 14.9169C25.4787 14.4227 26.2694 14.4227 26.7636 14.9169C27.2577 15.4111 27.2577 16.2017 26.7636 16.6959L12.927 30.5324C12.4328 31.0265 11.6422 31.0265 11.148 30.5324ZM7.90449 38.0885H12.2172V41.35L6.422 42.3653L3.62773 39.571L4.64301 33.7759H7.90449V38.0885Z" fill="#02628B"/>
</svg>
