<svg width="54" height="64" viewBox="0 0 54 64" fill="none" xmlns="http://www.w3.org/2000/svg">
<path d="M26.9146 0.375C12.3454 0.375 0.532227 14.6196 0.532227 32.1875C0.532227 49.7554 12.3454 64 26.9146 64C41.4838 64 53.2969 49.7554 53.2969 32.1875C53.2969 14.6196 41.4838 0.375 26.9146 0.375ZM26.9146 58.6032C14.8187 58.6032 5.0078 46.773 5.0078 32.1875C5.0078 17.602 14.8187 5.77176 26.9146 5.77176C39.0104 5.77176 48.8213 17.602 48.8213 32.1875C48.8213 46.773 39.0104 58.6032 26.9146 58.6032Z" fill="#10B4FF"/>
<path d="M29.7234 30.5401L28.2276 30.1212V20.5845C30.4654 20.9538 31.8493 22.6438 32.0848 24.7173C32.1143 25.0014 32.3145 25.2073 32.55 25.2073H35.1942C35.4709 25.2073 35.6888 24.9161 35.6653 24.5824C35.306 20.1585 32.285 17.3181 28.2511 16.8281V14.5061C28.2511 14.1936 28.0391 13.938 27.78 13.938H26.1252C25.8661 13.938 25.6541 14.1936 25.6541 14.5061V16.8494C21.4848 17.3394 18.2223 20.1159 18.2223 25.2996C18.2223 30.0999 21.155 32.4148 24.2349 33.3024L25.6894 33.7498V43.8829C23.0865 43.464 21.6261 41.7881 21.3258 39.53C21.2904 39.2602 21.0902 39.0613 20.8605 39.0613H18.1399C17.8631 39.0613 17.6452 39.3454 17.6687 39.6791C17.9337 43.5847 20.3894 47.1778 25.6306 47.6394V49.8691C25.6306 50.1815 25.8426 50.4371 26.1017 50.4371H27.7741C28.0332 50.4371 28.2452 50.1815 28.2452 49.862L28.2335 47.611C32.8445 47.121 36.1423 44.1457 36.1423 38.8057C36.1364 33.8776 33.5394 31.6763 29.7234 30.5401ZM25.6836 29.3898C25.3538 29.2762 25.077 29.1696 24.8002 29.0347C22.8098 28.1684 21.8852 26.7695 21.8852 24.9658C21.8852 22.3882 23.5047 20.9183 25.6836 20.5845V29.3898ZM28.2276 43.9042V34.4102C28.4101 34.4741 28.575 34.5238 28.7458 34.5664C31.5313 35.5889 32.4676 37.0091 32.4676 39.1892C32.4676 41.9656 30.7362 43.6344 28.2276 43.9042Z" fill="#10B4FF"/>
</svg>
