<svg width="70" height="70" viewBox="0 0 70 70" fill="none" xmlns="http://www.w3.org/2000/svg">
<path fill-rule="evenodd" clip-rule="evenodd" d="M61.25 4.375H8.75C7.58968 4.375 6.47688 4.83594 5.65641 5.65641C4.83594 6.47688 4.375 7.58968 4.375 8.75V61.25C4.375 62.4103 4.83594 63.5231 5.65641 64.3436C6.47688 65.1641 7.58968 65.625 8.75 65.625H61.25C62.4103 65.625 63.5231 65.1641 64.3436 64.3436C65.1641 63.5231 65.625 62.4103 65.625 61.25V8.75C65.625 7.58968 65.1641 6.47688 64.3436 5.65641C63.5231 4.83594 62.4103 4.375 61.25 4.375ZM8.75 0C6.42936 0 4.20376 0.921872 2.56282 2.56282C0.921872 4.20376 0 6.42936 0 8.75L0 61.25C0 63.5706 0.921872 65.7962 2.56282 67.4372C4.20376 69.0781 6.42936 70 8.75 70H61.25C63.5706 70 65.7962 69.0781 67.4372 67.4372C69.0781 65.7962 70 63.5706 70 61.25V8.75C70 6.42936 69.0781 4.20376 67.4372 2.56282C65.7962 0.921872 63.5706 0 61.25 0L8.75 0Z" fill="black"/>
<path d="M22.9688 26.3944H28.7438C28.7438 22.9775 30.7475 20.3394 34.6938 20.3394C37.6906 20.3394 40.4381 21.84 40.4381 25.4494C40.4381 28.2275 38.8019 29.505 36.2163 31.4475C33.2719 33.5869 30.94 36.085 31.1063 40.1406L31.1369 42.1662H36.855V40.6131C36.855 37.4719 38.0494 36.5575 41.2738 34.1119C43.9381 32.0862 46.7163 29.8375 46.7163 25.1169C46.7163 18.5063 41.1338 15.3125 35.0219 15.3125C29.2206 15.3125 22.8331 18.1431 22.9731 26.3944H22.9688ZM29.8025 50.5269C29.8025 52.8587 31.6619 54.5825 34.2213 54.5825C36.8856 54.5825 38.7188 52.8587 38.7188 50.5269C38.7188 48.1119 36.8813 46.4144 34.2169 46.4144C31.6619 46.4144 29.8025 48.1119 29.8025 50.5269Z" fill="black"/>
</svg>
