<svg width="68" height="62" viewBox="0 0 68 62" fill="none" xmlns="http://www.w3.org/2000/svg">
<path d="M67.1925 37.2L56.5675 16.5333H59.5C60.0636 16.5333 60.6041 16.3156 61.0026 15.928C61.4011 15.5404 61.625 15.0148 61.625 14.4667C61.625 13.9186 61.4011 13.3929 61.0026 13.0053C60.6041 12.6177 60.0636 12.4 59.5 12.4H56.1425C53.8596 9.98162 51.1086 8.0249 48.0471 6.64185C44.9857 5.2588 41.6737 4.47659 38.301 4.34L38.25 4.13333C38.25 3.03711 37.8022 1.98578 37.0052 1.21063C36.2082 0.435475 35.1272 0 34 0C32.8728 0 31.7918 0.435475 30.9948 1.21063C30.1978 1.98578 29.75 3.03711 29.75 4.13333V4.34C22.8811 4.6169 16.399 7.507 11.7002 12.3876L8.5 12.4C7.93641 12.4 7.39591 12.6177 6.9974 13.0053C6.59888 13.3929 6.375 13.9186 6.375 14.4667C6.375 15.0148 6.59888 15.5404 6.9974 15.928C7.39591 16.3156 7.93641 16.5333 8.5 16.5333H11.4325L0.8075 37.2H0C0 41.7467 5.695 45.4667 12.75 45.4667C19.805 45.4667 25.5 41.7467 25.5 37.2H24.6925L13.855 16.1613C14.1216 16.0055 14.3518 15.7971 14.5307 15.5496C16.4106 13.402 18.736 11.6651 21.3544 10.4527C23.9729 9.24031 26.8252 8.57987 29.7245 8.51467L29.75 53.7333H25.5V57.8667H17V62H51V57.8667H42.5V53.7333H38.25V8.51467C41.116 8.5701 43.9364 9.22356 46.5203 10.4308C49.1042 11.6381 51.3914 13.3711 53.227 15.5124C53.4265 15.8341 53.7093 16.0992 54.0472 16.2812L43.3075 37.2H42.5C42.5 41.7467 48.195 45.4667 55.25 45.4667C62.305 45.4667 68 41.7467 68 37.2H67.1925ZM21.25 37.2H4.25L12.75 20.9147L21.25 37.2ZM46.75 37.2L55.25 20.9147L63.75 37.2H46.75Z" fill="#10B4FF"/>
</svg>
