<svg width="57" height="68" viewBox="0 0 57 68" fill="none" xmlns="http://www.w3.org/2000/svg">
<path d="M48.2857 10.0421C45.6812 6.87039 42.5826 4.35052 39.168 2.6272C35.7534 0.903885 32.0901 0.0110884 28.3885 0.000102633C24.6869 -0.0108831 21.02 0.860158 17.5984 2.56319C14.1768 4.26621 11.068 6.76766 8.45061 9.92383C5.83318 13.08 3.75871 16.8287 2.34637 20.9545C0.934039 25.0803 0.211678 29.502 0.220788 33.9655C0.229899 38.4289 0.970302 42.8463 2.39946 46.9636C3.82862 51.081 5.91837 54.8174 8.54865 57.958C11.1532 61.1296 14.2517 63.6495 17.6663 65.3728C21.0809 67.0961 24.7442 67.9889 28.4458 67.9999C32.1474 68.0109 35.8143 67.1398 39.2359 65.4368C42.6575 63.7338 45.7663 61.2323 48.3837 58.0762C51.0012 54.92 53.0756 51.1713 54.488 47.0455C55.9003 42.9197 56.6227 38.498 56.6135 34.0345C56.6044 29.5711 55.864 25.1537 54.4349 21.0364C53.0057 16.919 50.916 13.1826 48.2857 10.0421ZM4.3326 34C4.3317 31.4297 4.61433 28.8706 5.17305 26.3902C6.09378 28.78 7.43098 30.8447 8.34042 33.2966C9.5158 36.4489 12.6719 35.5746 14.0655 38.3366C15.3024 40.7885 13.9815 43.8893 14.9072 46.4547C15.5796 48.3167 17.1652 48.7236 18.259 50.0849C19.3767 51.4583 19.3528 53.34 19.5234 55.1309C19.7159 57.2351 20.0282 59.3208 20.458 61.3734C20.458 61.3885 20.458 61.4052 20.468 61.4203C11.0813 57.4452 4.3326 46.6559 4.3326 34ZM28.4172 63.0418C27.0721 63.0413 25.7294 62.9057 24.4031 62.6364C24.4169 62.2265 24.4231 61.8438 24.457 61.5776C24.7618 59.1726 25.7603 56.8205 27.1076 55.0205C28.4385 53.2447 30.2624 52.0437 31.3863 50.0289C32.4877 48.0626 32.8176 45.4155 32.3635 43.1179C31.6949 39.7237 27.8702 38.5907 25.808 36.7499C24.6226 35.6911 23.5676 34.0545 22.0109 33.9213C21.2934 33.8608 20.6925 34.0469 19.9813 33.826C19.329 33.6219 18.8172 33.1983 18.1223 33.3087C16.824 33.5145 16.0048 35.1874 14.6099 34.9605C13.2865 34.7472 11.923 32.8792 11.6219 31.359C11.2356 29.4047 12.5176 28.771 13.8912 28.597C14.4644 28.5244 15.1079 28.4458 15.6586 28.6999C16.3837 29.0236 16.7261 29.8797 17.3772 30.3123C18.5977 31.12 18.8448 29.8298 18.6579 28.5229C18.3782 26.5656 18.052 25.7685 19.4996 24.4208C20.5031 23.492 21.3611 22.8204 21.2006 21.152C21.1052 20.1719 20.6599 19.7287 21.0751 18.7531C21.39 18.0104 22.2543 17.3403 22.8175 16.8971C24.2714 15.7536 29.0456 15.8383 27.095 12.6377C26.5218 11.6983 25.4643 10.0194 24.4608 9.78945C23.2064 9.50357 22.6494 11.1916 21.7751 11.9358C20.8719 12.7057 19.1132 13.58 18.2088 12.3896C16.992 10.7878 19.0154 10.2629 19.4632 9.14357C19.6702 8.62173 19.4632 7.8972 19.1145 7.21502C19.5669 6.9851 20.0269 6.77183 20.4943 6.57519C20.7873 6.83611 21.1349 6.99327 21.4979 7.02897C22.3371 7.09552 23.1286 6.54796 23.8612 7.2377C24.674 7.994 25.2598 8.94996 26.3386 9.18592C27.3823 9.41433 28.4874 8.68072 28.7458 7.39199C28.9026 6.60847 28.7458 5.78108 28.5953 4.97184C33.2868 5.00439 37.8669 6.69859 41.7665 9.8439C41.5157 9.72895 41.2159 9.74256 40.8458 9.94978C40.0844 10.3763 39.0056 11.4624 38.9165 12.5393C38.8149 13.7615 40.3102 13.934 41.0202 13.934C42.0864 13.934 43.1665 13.3592 42.8227 11.8738C42.6735 11.2294 42.4703 10.5594 42.1429 10.154C42.9299 10.8125 43.6838 11.5267 44.4008 12.2928C44.3895 12.3064 44.3782 12.3185 44.3669 12.3336C43.6444 13.2412 42.8052 13.9597 42.3109 15.0639C41.9622 15.8413 41.5696 16.2104 40.8634 16.4116C40.4745 16.522 40.0304 16.5628 39.7043 16.8775C38.7961 17.7396 39.3129 19.8119 40.1734 20.4336C41.261 21.2186 42.8742 20.8495 43.6946 19.7287C44.3356 18.8514 44.7131 17.3282 45.8659 17.3297C46.3735 17.3284 46.861 17.5681 47.2232 17.9968C47.6999 18.5927 47.6058 19.1494 47.7074 19.8936C47.8868 21.2156 48.8539 20.4986 49.4422 19.8315C49.8711 20.7518 50.258 21.6996 50.6013 22.6707C49.954 23.7945 49.4397 25.0197 47.883 23.7098C46.951 22.9248 46.3777 21.7858 45.2074 21.4319C44.185 21.1294 43.1376 21.444 42.1278 21.6542C40.98 21.8947 39.619 22.0006 38.7484 23.0488C37.9067 24.0592 37.4614 25.4115 36.5658 26.4265C34.8334 28.3928 34.1021 30.5392 35.2236 33.3193C36.3024 35.9921 38.559 37.4427 40.9938 37.2521C43.386 37.06 45.8709 35.3871 45.802 39.5784C45.7769 41.0623 46.034 42.0893 46.4116 43.4673C46.7616 44.7379 46.7377 45.9691 46.818 47.2806C46.8944 48.8162 47.0935 50.3394 47.4126 51.8289C45.1642 55.3196 42.2839 58.1446 38.9917 60.0879C35.6996 62.0312 32.0826 63.0416 28.4172 63.0418Z" fill="#10B4FF"/>
</svg>
